<?xml version="1.0" standalone="no"?>
<!DOCTYPE svg PUBLIC "-//W3C//DTD SVG 1.1//EN" "http://www.w3.org/Graphics/SVG/1.1/DTD/svg11.dtd" >
<svg xmlns="http://www.w3.org/2000/svg" xmlns:xlink="http://www.w3.org/1999/xlink" version="1.1">
<metadata></metadata>
<defs>
<font id="geometos_softbold" horiz-adv-x="1585" >
<font-face units-per-em="2048" ascent="1638" descent="-410" />
<missing-glyph horiz-adv-x="581" />
<glyph horiz-adv-x="0" />
<glyph unicode="&#xd;" horiz-adv-x="700" />
<glyph horiz-adv-x="0" />
<glyph horiz-adv-x="0" />
<glyph unicode=" "  horiz-adv-x="581" />
<glyph unicode="&#x09;" horiz-adv-x="581" />
<glyph unicode="&#xa0;" horiz-adv-x="581" />
<glyph unicode="!" horiz-adv-x="600" d="M147 135q0 61 44.5 105.5t105.5 44.5q63 0 107.5 -44t44.5 -106q0 -63 -44.5 -107t-107.5 -44q-62 0 -106 44t-44 107zM147 1440q-1 26 14 41.5t42 15.5h192q27 0 42 -15.5t14 -41.5l-48 -951q-3 -53 -55 -53h-98q-52 0 -55 53z" />
<glyph unicode="&#x22;" horiz-adv-x="909" d="M98 1444q-3 57 54 57h159q57 0 54 -57l-25 -336q-3 -53 -57 -53h-101q-54 0 -57 53zM532 1444q-3 57 54 57h159q57 0 54 -57l-27 -336q-3 -53 -57 -53h-101q-54 0 -57 53z" />
<glyph unicode="#" horiz-adv-x="1753" d="M61 438l62 158q15 43 63 43h226l92 235h-203q-30 0 -42 18t-1 46l61 158q15 43 64 43h223l125 319q18 43 64 43h166q31 0 43.5 -17.5t1.5 -45.5l-117 -299h262l127 319q17 43 63 43h166q31 0 43 -17t2 -46l-118 -299h211q30 0 42 -18t1 -46l-62 -157q-15 -44 -63 -44 h-232l-92 -235h209q30 0 42 -18t1 -46l-61 -157q-15 -43 -64 -43h-229l-131 -332q-17 -43 -64 -43h-166q-31 0 -43 17t-2 46l123 312h-264l-129 -332q-15 -43 -64 -43h-168q-30 0 -42 17.5t-1 45.5l121 312h-203q-30 0 -42 17.5t-1 45.5zM694 639h262l93 235h-263z" />
<glyph unicode="$" horiz-adv-x="1392" d="M109 1083q0 83 23.5 151.5t63 115.5t94.5 82.5t114 55.5t126 30v133q0 26 15 40.5t41 14.5h174q55 0 55 -55v-131q209 -27 365 -140q25 -18 27.5 -49.5t-15.5 -54.5l-70 -96q-19 -25 -50 -29.5t-60 12.5q-174 101 -365 101q-63 0 -116.5 -12.5t-94.5 -48.5t-41 -91 q0 -20 6 -38t15 -32.5t26 -28t31 -23t39.5 -20t41.5 -16t47 -14t46.5 -12.5t49 -12t46.5 -11q20 -5 73 -15.5t88.5 -18.5t91.5 -26t94.5 -38.5t82.5 -55.5t71 -77t45 -102.5t18 -133.5q0 -208 -132 -324.5t-360 -131.5v-127q0 -26 -14.5 -41t-40.5 -15h-174q-26 0 -41 15 t-15 41v143q-197 39 -370 162q-64 48 -21 110l56 84q45 68 114 21q76 -49 197.5 -90t226.5 -41q150 0 218.5 50.5t68.5 127.5q0 34 -11.5 61.5t-37 48t-52.5 35t-71 27t-78.5 20t-89.5 17.5q-179 32 -270 66q-300 114 -301 386z" />
<glyph unicode="%" horiz-adv-x="1966" d="M68 1090q0 183 108.5 301t274.5 118t274.5 -118t108.5 -301q0 -178 -110 -298t-273 -120q-166 0 -274.5 118.5t-108.5 299.5zM322 1090q0 -27 3 -52.5t12 -53.5t23 -48t38 -33.5t55 -13.5q46 0 76 34.5t40.5 77t10.5 89.5q0 33 -5.5 64.5t-18.5 64t-39.5 52t-63.5 19.5 q-38 0 -65 -19.5t-40.5 -51.5t-19.5 -64t-6 -65zM459.5 19q-11.5 19 5.5 47l827 1398q21 37 66 37h112q33 0 44.5 -18.5t-5.5 -46.5l-827 -1399q-21 -37 -66 -37h-112q-33 0 -44.5 19zM1120 387q0 183 108.5 301.5t274.5 118.5t274.5 -118.5t108.5 -301.5q0 -178 -110 -298 t-273 -120q-166 0 -274.5 118.5t-108.5 299.5zM1374 387q0 -27 3 -52.5t12 -53.5t23 -48t38 -33.5t55 -13.5q46 0 76 34.5t40.5 77t10.5 89.5q0 33 -5.5 65t-18.5 64t-39.5 52t-63.5 20q-38 0 -65 -20t-40.5 -52t-19.5 -64t-6 -65z" />
<glyph unicode="&#x26;" horiz-adv-x="1402" d="M61 391q0 187 177 334q23 20 118 86q-62 79 -93.5 150.5t-31.5 156.5q0 171 114.5 288.5t287.5 117.5q168 0 278.5 -111.5t110.5 -269.5q0 -54 -14 -101.5t-36 -84t-59 -73.5t-73 -64.5t-88 -61.5l190 -207q52 68 129 194q27 47 74 23l129 -66q47 -24 22 -75 q-69 -121 -172 -258l166 -172q39 -42 -2 -80l-117 -109q-39 -36 -77 2l-154 162q-134 -117 -217.5 -154.5t-202.5 -42.5q-123 -5 -227.5 45t-168 148t-63.5 223zM332 403q0 -76 50.5 -125.5t125.5 -52.5q45 -1 86.5 10t75.5 32.5t54.5 38.5t43.5 40l-266 275 q-87 -49 -128.5 -98.5t-41.5 -119.5zM492 1143q0 -106 90 -203q77 40 126 96t50 121q0 62 -37.5 99.5t-89.5 37.5t-95.5 -39.5t-43.5 -111.5z" />
<glyph unicode="'" horiz-adv-x="471" d="M98 1444q-3 57 54 57h159q57 0 54 -57l-25 -336q-3 -53 -57 -53h-101q-54 0 -57 53z" />
<glyph unicode="(" horiz-adv-x="808" d="M92 750q0 517 326 858q44 46 112 104q45 36 78 -12l97 -127q29 -42 -11 -76q-20 -16 -69 -65q-246 -258 -246 -682t246 -682q44 -44 69 -64q41 -35 11 -78l-97 -127q-33 -48 -78 -12q-68 58 -112 104q-326 341 -326 859z" />
<glyph unicode=")" horiz-adv-x="735" d="M53 -74q-30 44 10 78q30 24 70 64q246 258 246 682t-246 682q-45 45 -70 65q-39 33 -10 76l97 127q33 47 77 12q73 -62 113 -104q326 -341 326 -858q0 -518 -326 -859q-40 -42 -113 -104q-44 -35 -77 12z" />
<glyph unicode="*" horiz-adv-x="890" d="M82 1210l22 68q20 54 72 35l170 -62v189q0 55 55 55h80q26 0 41 -14.5t15 -40.5v-189l172 62q51 19 71 -35l23 -70q16 -51 -33 -69l-178 -62l115 -145q33 -45 -15 -76l-69 -47q-45 -31 -76 14l-105 146l-104 -146q-30 -46 -76 -14l-69 45q-48 31 -13 78l115 145l-180 62 q-52 19 -33 71z" />
<glyph unicode="+" horiz-adv-x="1161" d="M72 696v142q0 55 55 55h322v328q0 55 55 55h153q26 0 41 -14.5t15 -40.5v-328h321q26 0 41 -14.5t15 -40.5v-142q0 -26 -15 -40.5t-41 -14.5h-321v-328q0 -26 -15 -40.5t-41 -14.5h-153q-55 0 -55 55v328h-322q-55 0 -55 55z" />
<glyph unicode="," horiz-adv-x="430" d="M53 127q-3 63 39.5 109t104.5 49q58 2 104 -32.5t59 -92.5q29 -111 -30.5 -227t-177.5 -162q-50 -19 -66 22q-15 34 33 62q77 45 90 129q-62 -2 -107.5 40t-48.5 103z" />
<glyph unicode="-" horiz-adv-x="837" d="M160 700v142q0 55 55 55h395q26 0 41 -14.5t15 -40.5v-142q0 -26 -15 -40.5t-41 -14.5h-395q-55 0 -55 55z" />
<glyph unicode="." horiz-adv-x="421" d="M61 135q0 61 44.5 105.5t105.5 44.5q63 0 107 -44t44 -106q0 -63 -44 -107t-107 -44q-62 0 -106 44t-44 107z" />
<glyph unicode="/" horiz-adv-x="1110" d="M-21 -264q-11 19 1 47l862 1884q17 41 63 41h150q30 0 41.5 -19t-0.5 -47l-863 -1884q-17 -41 -63 -41h-150q-30 0 -41 19z" />
<glyph unicode="0" horiz-adv-x="1529" d="M92 748q0 169 49.5 313.5t137 246t212.5 159t271 57.5q191 0 344 -99.5t239.5 -277t86.5 -399.5q0 -119 -29.5 -233.5t-87 -213t-137.5 -173t-187.5 -117.5t-228.5 -42q-154 0 -282.5 65t-212 173.5t-129.5 248.5t-46 292zM383 748q0 -93 23 -181.5t67.5 -163t119.5 -120 t169 -45.5q69 0 135.5 34t121 96t87.5 161t33 219q0 77 -13 148.5t-42 137.5t-72 114.5t-107.5 77.5t-142.5 29q-54 0 -106.5 -18.5t-102 -58.5t-87 -98t-60.5 -144t-23 -188z" />
<glyph unicode="1" horiz-adv-x="909" d="M82 967q-38 38 4 80l451 428q26 26 67 26h88q26 0 41 -14.5t15 -40.5v-1391q0 -26 -15 -40.5t-41 -14.5h-176q-55 0 -55 55v953l-178 -170q-19 -19 -40 -18.5t-40 20.5z" />
<glyph unicode="2" horiz-adv-x="1314" d="M143 1169q17 46 44 92t72 94.5t98.5 85t128.5 60t159 23.5q103 0 190 -27t147 -73t102 -106.5t61.5 -126.5t19.5 -134q0 -84 -20 -155t-64 -136t-97.5 -119.5t-135.5 -124.5q-243 -200 -328 -268h608q26 0 41 -14.5t15 -40.5v-144q0 -26 -15 -40.5t-41 -14.5h-925 q-26 0 -41 14.5t-15 40.5v189q0 39 31 67l502 420q66 53 107.5 98.5t60.5 85.5t25 70.5t6 71.5q0 103 -62.5 157t-152.5 54q-56 0 -102 -18t-74.5 -48t-44.5 -55t-27 -53q-10 -27 -35.5 -39t-56.5 -4l-138 34q-68 18 -43 84z" />
<glyph unicode="3" horiz-adv-x="1228" d="M100 334q-18 50 37 67l139 43q47 14 70 -30q17 -31 38.5 -60t55 -60.5t80.5 -50.5t101 -20q111 1 165 55t54 146q0 108 -79.5 160.5t-240.5 58.5q-57 0 -57 55v121q0 55 57 55q163 6 241.5 52t78.5 157q0 87 -58 141t-161 54q-201 0 -275 -184q-18 -52 -67 -37l-142 45 q-55 17 -37 67t43.5 96t69.5 96.5t98 86.5t133.5 60t171.5 24q108 0 196 -26t145 -68.5t96 -100t56 -117t17 -122.5q0 -64 -15 -116t-37 -86t-57.5 -63t-65 -45.5t-70.5 -33.5q245 -79 245 -348q0 -104 -40 -187.5t-109.5 -137t-160.5 -82t-195 -28.5q-94 0 -174 24 t-134.5 60t-99 86.5t-70 96.5t-43.5 96z" />
<glyph unicode="4" horiz-adv-x="1376" d="M109 387v152q0 36 24 67l737 864q28 31 68 31h121q55 0 55 -55v-860h127q26 0 40.5 -15t14.5 -41v-143q0 -55 -55 -55h-127v-277q0 -55 -55 -55h-176q-26 0 -41 14.5t-15 40.5v277h-663q-55 0 -55 55zM475 586h352v432z" />
<glyph unicode="5" horiz-adv-x="1282" d="M110 228q3 26 19 44l76 82q20 22 48 23t50 -19q135 -129 320 -129q121 0 197.5 73t76.5 202q0 112 -72 191t-190 79q-146 0 -252 -94q-34 -31 -78 -10l-131 71q-44 21 -35 70l119 641q8 49 61 49h709q55 0 55 -55v-146q0 -55 -55 -55h-528l-51 -315q96 71 268 71 q204 0 332.5 -137.5t128.5 -369.5q0 -235 -152.5 -379t-390.5 -144q-91 0 -170.5 17.5t-142 50.5t-105.5 64t-88 73q-22 26 -19 52z" />
<glyph unicode="6" horiz-adv-x="1329" d="M105.5 429.5q-14.5 92.5 0.5 193t60 192.5q36 72 170 274.5t260 376.5q22 35 68 35h206q34 0 44.5 -19t-9.5 -48l-317 -453q15 8 48 17t60 10q236 11 379.5 -126.5t143.5 -383.5q0 -248 -157 -387.5t-409 -139.5q-115 0 -212 36.5t-164.5 98.5t-112 146.5t-59 177z M385 496q0 -117 80.5 -197t196.5 -80t197 80t81 197q0 120 -80 203t-203 83q-115 0 -193.5 -83.5t-78.5 -202.5z" />
<glyph unicode="7" horiz-adv-x="1230" d="M86 1300v146q0 55 55 55h961q55 0 55 -55v-191q0 -35 -18 -69l-643 -1147q-20 -39 -68 -39h-207q-32 0 -43 19t6 47l678 1179h-721q-55 0 -55 55z" />
<glyph unicode="8" horiz-adv-x="1271" d="M80 432q0 138 77 237t179 124q-73 26 -136 117.5t-63 189.5q0 181 144 301.5t350 120.5q135 0 248 -54t180 -151.5t67 -216.5q0 -107 -56.5 -194.5t-141.5 -112.5q106 -25 181 -122.5t75 -238.5q0 -114 -43 -203.5t-119.5 -145t-175.5 -84t-215 -28.5t-214.5 28.5 t-174.5 84t-119 145t-43 203.5zM369 449q0 -113 73.5 -167.5t188.5 -54.5q116 0 190 54.5t74 167.5q0 100 -76.5 160.5t-187.5 60.5t-186.5 -59t-75.5 -162zM424 1079q0 -92 59 -140t148 -48q90 0 148.5 48.5t58.5 139.5q0 90 -58.5 138.5t-148.5 48.5q-87 0 -147 -50 t-60 -137z" />
<glyph unicode="9" horiz-adv-x="1345" d="M117 1004q0 248 156.5 387t408.5 139q115 0 212 -36.5t164.5 -98.5t112 -146.5t59 -177t-0.5 -193t-60 -192.5q-36 -72 -170 -274.5t-260 -376.5q-22 -35 -67 -35h-207q-34 0 -44.5 19.5t9.5 48.5l318 452q-40 -22 -109 -26q-236 -11 -379 126.5t-143 383.5zM395 1006 q0 -120 80 -203.5t203 -83.5q115 0 193.5 84t78.5 203q0 117 -80 196.5t-196 79.5t-197.5 -80t-81.5 -196z" />
<glyph unicode=":" horiz-adv-x="421" d="M59 135q0 62 43.5 106t106.5 44t107 -44t44 -106q0 -63 -44 -107t-107 -44t-106.5 44t-43.5 107zM59 713q0 63 43.5 107t106.5 44t107 -44t44 -107q0 -62 -44 -106t-107 -44t-106.5 44t-43.5 106z" />
<glyph unicode=";" horiz-adv-x="436" d="M59 127q-3 63 39.5 109t104.5 49q58 2 104.5 -32.5t59.5 -92.5q29 -110 -31 -226.5t-178 -162.5q-50 -19 -66 22q-15 34 33 62q77 45 90 129q-62 -2 -107.5 40t-48.5 103zM61 713q0 63 43.5 107t106.5 44t107 -44t44 -107q0 -62 -44 -106t-107 -44t-106.5 44t-43.5 106z " />
<glyph unicode="&#x3c;" horiz-adv-x="1132" d="M109 657v172q0 44 41 64l804 379q28 14 47 2t19 -43v-174q0 -46 -43 -64l-576 -250l576 -247q43 -18 43 -64v-176q0 -31 -19 -43t-47 2l-804 379q-41 20 -41 63z" />
<glyph unicode="=" horiz-adv-x="1150" d="M104 426v141q0 26 15 41t41 15h821q26 0 40.5 -15t14.5 -41v-141q0 -55 -55 -55h-821q-26 0 -41 14.5t-15 40.5zM104 922v141q0 26 15 40.5t41 14.5h821q55 0 55 -55v-141q0 -26 -14.5 -41t-40.5 -15h-821q-26 0 -41 15t-15 41z" />
<glyph unicode="&#x3e;" horiz-adv-x="1132" d="M109 256v176q0 46 43 64l575 247l-575 250q-43 18 -43 64v174q0 31 18.5 42.5t46.5 -1.5l805 -379q41 -20 41 -64v-172q0 -43 -41 -63l-805 -379q-28 -13 -46.5 -1.5t-18.5 42.5z" />
<glyph unicode="?" horiz-adv-x="1204" d="M39 1176q19 45 43.5 87t71.5 94.5t103 90.5t140.5 64t182.5 26q149 0 267 -53t185.5 -151.5t67.5 -225.5q0 -61 -11.5 -113t-37 -92.5t-48.5 -68.5t-63 -55.5t-62 -40.5t-64 -35q-11 -6 -17 -9q-76 -42 -109 -89t-39 -116q-6 -55 -55 -55h-170q-58 0 -55 55 q4 145 102 281q30 43 78 78.5t91.5 58.5t84 48.5t64.5 59.5t24 79q0 19 -3 36.5t-17 42.5t-37 43t-68.5 31t-107.5 13q-190 0 -277 -175q-22 -48 -70 -32l-159 53q-53 19 -35 70zM358 135q0 61 44 105.5t106 44.5q63 0 107 -44t44 -106q0 -63 -44 -107t-107 -44 q-62 0 -106 44t-44 107z" />
<glyph unicode="@" horiz-adv-x="1734" d="M88 756q0 221 97.5 396.5t274 274.5t400.5 99q372 0 581.5 -179t209.5 -518q0 -148 -32 -262.5t-107 -187t-185 -72.5q-69 0 -131.5 36.5t-93.5 94.5q-34 -55 -108.5 -90t-159.5 -35q-183 0 -288.5 114.5t-105.5 311.5q0 189 109.5 305.5t286.5 116.5q109 0 192 -61 q0 25 14.5 39t40.5 14h97q55 0 55 -55v-455q0 -47 5 -77t25.5 -53.5t57.5 -23.5q41 0 67 29t41 105.5t15 205.5q0 258 -153.5 381t-432.5 123q-114 0 -208.5 -33t-159.5 -89t-110 -130.5t-66 -156.5t-21 -168q0 -88 12.5 -165t51.5 -161t101.5 -143.5t171 -98t251.5 -38.5 q145 0 260 69q44 24 76 -8l61 -59q21 -20 20 -40.5t-24 -35.5q-73 -50 -164.5 -77.5t-228.5 -27.5q-386 0 -590.5 206t-204.5 579zM657 739q0 -67 17 -115.5t46 -74t61.5 -36.5t70.5 -11q32 0 61 10t55.5 31.5t42.5 61t17 93.5v97q0 30 -3 53.5t-14.5 50t-31.5 44t-55.5 29 t-83.5 11.5q-52 0 -90 -24t-57 -63.5t-27.5 -78t-8.5 -78.5z" />
<glyph unicode="A" d="M42.5 19q-11.5 19 2.5 47l709 1402q16 33 39 33q22 0 38 -33l709 -1402q14 -28 2.5 -47t-43.5 -19h-192q-45 0 -66 41l-96 195h-707l-94 -195q-18 -41 -65 -41h-193q-32 0 -43.5 19zM578 485h428l-213 469z" />
<glyph unicode="B" horiz-adv-x="1423" d="M164 55v1389q0 55 55 55h582q461 0 461 -409q0 -122 -68.5 -212t-175.5 -94v-2q120 -7 212.5 -102.5t92.5 -251.5q0 -96 -27.5 -171t-73.5 -122.5t-111.5 -78.5t-136 -43.5t-151.5 -12.5h-604q-55 0 -55 55zM451 254h352q110 0 171.5 46.5t61.5 143.5t-62.5 144 t-176.5 47h-346v-381zM451 891h321q107 0 155 47.5t48 138.5q0 84 -53 126t-148 42h-323v-354z" />
<glyph unicode="C" horiz-adv-x="1593" d="M82 748q0 160 61.5 304.5t165.5 247.5t247.5 163.5t301.5 60.5q218 0 385.5 -94t255.5 -238q19 -36 9 -59t-38 -33l-145 -60q-23 -10 -47 -3t-37 28q-64 88 -162.5 140t-220.5 52q-133 0 -245.5 -68.5t-178 -186t-65.5 -254.5q0 -139 65.5 -256.5t178 -185.5t245.5 -68 q125 0 219.5 50t149.5 126q31 44 70 44q15 0 32 -7l141 -58q30 -11 39.5 -36t-8.5 -56q-96 -148 -263 -239t-380 -91q-158 0 -301.5 60t-247.5 163t-165.5 247.5t-61.5 306.5z" />
<glyph unicode="D" horiz-adv-x="1609" d="M164 55v1389q0 55 55 55h537q357 0 554 -200.5t197 -548.5q0 -349 -195 -549.5t-556 -200.5h-537q-55 0 -55 55zM451 258h305q463 0 463 490q0 493 -463 493h-305v-983z" />
<glyph unicode="E" horiz-adv-x="1398" d="M164 55v1389q0 55 55 55h991q26 0 41 -14.5t15 -40.5v-144q0 -26 -15 -40.5t-41 -14.5h-761v-375h669q26 0 41 -14.5t15 -40.5v-143q0 -26 -15 -41t-41 -15h-669v-362h761q26 0 41 -14.5t15 -40.5v-144q0 -26 -15 -40.5t-41 -14.5h-991q-55 0 -55 55z" />
<glyph unicode="F" horiz-adv-x="1335" d="M164 55v1389q0 55 55 55h991q26 0 41 -14.5t15 -40.5v-144q0 -26 -15 -40.5t-41 -14.5h-759v-401h667q26 0 41 -15t15 -41v-143q0 -26 -15 -40.5t-41 -14.5h-667v-535q0 -26 -15 -40.5t-41 -14.5h-176q-55 0 -55 55z" />
<glyph unicode="G" horiz-adv-x="1695" d="M82 748q0 158 61.5 302t165.5 248t247.5 166t301.5 62q183 0 343 -80t269 -219q14 -19 14 -36q0 -24 -30 -42l-147 -92q-17 -11 -33 -11q-24 0 -45 25q-71 83 -168.5 134.5t-202.5 51.5q-204 0 -347.5 -146.5t-143.5 -362.5q0 -218 148 -364t370 -146q170 0 286.5 92.5 t135.5 230.5h-498q-55 0 -55 55v148q0 55 55 55h750q52 0 55 -53q1 -28 1 -55q0 -44 -3 -84q-12 -143 -70 -264t-152.5 -207.5t-226.5 -135.5t-286 -49q-219 0 -402 104.5t-288 283t-105 389.5z" />
<glyph unicode="H" horiz-adv-x="1638" d="M164 55v1389q0 55 55 55h174q26 0 41 -14.5t15 -40.5v-592h741v592q0 55 55 55h174q26 0 41 -14.5t15 -40.5v-1389q0 -26 -15 -40.5t-41 -14.5h-174q-55 0 -55 55v543h-741v-543q0 -26 -15 -40.5t-41 -14.5h-174q-55 0 -55 55z" />
<glyph unicode="I" horiz-adv-x="655" d="M184 55v1389q0 26 15 40.5t41 14.5h176q55 0 55 -55v-1389q0 -55 -55 -55h-176q-26 0 -41 14.5t-15 40.5z" />
<glyph unicode="J" horiz-adv-x="1247" d="M63.5 271.5q7.5 22.5 32.5 33.5q89 41 148 68q16 7 30 7q32 0 54 -34q75 -115 207 -115q67 0 117 21t78 52t45.5 74t22.5 79t5 75v912q0 55 55 55h176q26 0 41 -14.5t15 -40.5v-912q0 -260 -151.5 -410.5t-403.5 -150.5q-155 0 -273 66.5t-190 183.5q-16 28 -8.5 50.5z " />
<glyph unicode="K" horiz-adv-x="1478" d="M164 55v1389q0 55 55 55h176q26 0 41 -14.5t15 -40.5v-707l569 729q24 33 67 33h226q35 0 45 -19.5t-12 -47.5l-564 -709l613 -655q25 -26 15.5 -47t-44.5 -21h-246q-39 0 -67 31l-602 651v-627q0 -26 -15 -40.5t-41 -14.5h-176q-55 0 -55 55z" />
<glyph unicode="L" horiz-adv-x="1259" d="M164 55v1389q0 55 55 55h176q26 0 41 -14.5t15 -40.5v-1190h737q55 0 55 -55v-144q0 -55 -55 -55h-969q-55 0 -55 55z" />
<glyph unicode="M" horiz-adv-x="1839" d="M164 55v1422q0 24 22 24q10 0 16.5 -5.5t24.5 -27.5l691 -835l692 835q18 22 24.5 27.5t16.5 5.5q22 0 22 -24v-1422q0 -55 -55 -55h-176q-26 0 -41 14.5t-15 40.5v736l-430 -549q-20 -23 -38 -23q-19 0 -39 23l-428 549v-736q0 -26 -15 -40.5t-41 -14.5h-176 q-55 0 -55 55z" />
<glyph unicode="N" horiz-adv-x="1630" d="M164 55v1424q0 22 18 22q15 0 43 -28l955 -889v860q0 55 55 55h176q55 0 55 -55v-1424q0 -22 -18 -22q-11 0 -41 27l-958 874v-844q0 -26 -15 -40.5t-41 -14.5h-174q-55 0 -55 55z" />
<glyph unicode="O" horiz-adv-x="1732" d="M88 750q0 214 95 390.5t273.5 282t407.5 105.5q173 0 320 -61.5t246.5 -167t155.5 -247.5t56 -302t-56 -303t-155.5 -248t-246.5 -166.5t-320 -61.5q-172 0 -318.5 61.5t-246 166.5t-155.5 248t-56 303zM373 750q0 -108 39 -203.5t105 -163t156.5 -106.5t190.5 -39 q101 0 191.5 39t156.5 106.5t105 163t39 203.5q0 107 -39 202t-105 162.5t-156.5 106.5t-191.5 39q-204 0 -347.5 -147t-143.5 -363z" />
<glyph unicode="P" horiz-adv-x="1388" d="M164 55v1389q0 55 55 55h567q265 0 421.5 -148.5t156.5 -383.5q0 -239 -149.5 -380t-430.5 -141h-333v-391q0 -26 -15 -40.5t-41 -14.5h-176q-55 0 -55 55zM451 700h352q125 0 199.5 76.5t74.5 190.5q0 118 -77 198t-207 80h-342v-545z" />
<glyph unicode="Q" horiz-adv-x="1693" d="M88 762q0 155 60.5 296.5t162.5 244t243 163t296 60.5q158 0 297.5 -52.5t243 -146t163.5 -233.5t60 -306q0 -172 -71.5 -320.5t-192.5 -213.5h239q26 0 41 -14.5t15 -40.5v-146q0 -26 -15 -40.5t-41 -14.5h-690q-203 0 -360.5 60t-254.5 165t-146.5 241.5t-49.5 297.5z M373 762q0 -212 135 -349t342 -137q209 0 343 137t134 349q0 219 -137 352t-340 133q-130 0 -239 -61t-173.5 -173t-64.5 -251z" />
<glyph unicode="R" horiz-adv-x="1474" d="M164 55v1389q0 55 55 55h625q228 0 372 -144t144 -372q0 -171 -86 -306t-225 -173l325 -436q20 -28 9.5 -48t-44.5 -20h-215q-43 0 -67 35l-324 442h-284v-422q0 -26 -15 -40.5t-41 -14.5h-174q-55 0 -55 55zM449 727h327q70 0 123.5 15t86.5 39t53.5 58.5t28 69.5 t7.5 76q0 116 -74 188t-225 72h-327v-518z" />
<glyph unicode="S" horiz-adv-x="1392" d="M119 1075q0 98 35 176.5t91.5 128t132.5 82.5t153 46.5t157 13.5q159 0 279 -39.5t223 -112.5q25 -18 29.5 -47t-11.5 -49l-80 -109q-15 -22 -43.5 -26.5t-54.5 10.5q-182 106 -373 106q-46 0 -87.5 -7.5t-80 -24t-61 -47t-22.5 -72.5q0 -20 4.5 -38t17 -33t23 -27.5 t33 -24t36.5 -19.5t44 -17.5t44.5 -14t49.5 -12.5t47 -10.5t49 -10.5q13 -3 58.5 -11.5t69.5 -13.5t72 -18t76.5 -24.5t71.5 -32.5t69.5 -43.5t57 -56t48 -71.5t29 -88.5t11.5 -107.5q0 -225 -153.5 -342t-415.5 -117q-191 0 -325.5 49.5t-254.5 133.5q-29 20 -32 52.5 t14 55.5l61 92q16 25 42.5 31.5t59.5 -10.5q245 -139 430 -139q150 0 218.5 50.5t68.5 127.5q0 34 -11.5 61.5t-37 48t-52.5 35t-71 27t-78.5 20t-89.5 17.5q-173 32 -254 60q-317 111 -317 392z" />
<glyph unicode="T" horiz-adv-x="1269" d="M61 1300v144q0 26 15 40.5t41 14.5h1034q55 0 55 -55v-144q0 -55 -55 -55h-373v-1190q0 -55 -55 -55h-176q-55 0 -55 55v1190h-375q-26 0 -41 14.5t-15 40.5z" />
<glyph unicode="U" horiz-adv-x="1613" d="M164 604v840q0 55 55 55h176q26 0 41 -14.5t15 -40.5v-840q0 -86 24.5 -154.5t62 -109.5t87 -68t94 -37t88.5 -10t88.5 10t94 37t87 68t62 109.5t24.5 154.5v840q0 26 15 40.5t41 14.5h176q55 0 55 -55v-840q0 -287 -175 -459t-468 -172q-292 0 -467.5 172t-175.5 459z " />
<glyph unicode="V" horiz-adv-x="1476" d="M56.5 1480.5q11.5 18.5 41.5 18.5h199q46 0 63 -41l385 -829l385 829q17 41 64 41h201q31 0 42.5 -18.5t-1.5 -46.5l-654 -1401q-15 -33 -37 -33q-21 0 -36 33l-652 1401q-12 28 -0.5 46.5z" />
<glyph unicode="W" horiz-adv-x="2029" d="M49 1436q-11 28 1.5 45.5t43.5 17.5h191q47 0 63 -45l277 -778l358 794q12 29 33 29q19 0 31 -29l358 -796l283 780q16 45 63 45h191q30 0 42 -17.5t1 -45.5l-519 -1403q-8 -22 -14 -27.5t-16 -5.5t-17.5 6.5t-15.5 26.5l-387 868l-391 -870q-9 -21 -15 -27t-16 -6 t-17 6.5t-14 28.5z" />
<glyph unicode="X" horiz-adv-x="1544" d="M77.5 1479.5q9.5 19.5 43.5 19.5h231q46 0 68 -35l364 -506l365 506q22 35 68 35h229q34 0 43.5 -19.5t-10.5 -47.5l-516 -691l505 -673q20 -28 11 -48t-43 -20h-232q-45 0 -67 35l-353 487l-352 -487q-22 -35 -67 -35h-232q-34 0 -43.5 20t10.5 48l506 673l-518 691 q-20 28 -10.5 47.5z" />
<glyph unicode="Y" horiz-adv-x="1452" d="M50.5 1481q10.5 18 43.5 18h213q45 0 66 -37l354 -600l358 600q21 37 66 37h213q33 0 43.5 -18t-6.5 -47l-531 -867v-512q0 -55 -55 -55h-176q-55 0 -55 55v512l-527 867q-17 29 -6.5 47z" />
<glyph unicode="Z" horiz-adv-x="1437" d="M43 20q0 5 23 43l821 1182h-725q-26 0 -41 14.5t-15 40.5v144q0 26 15 40.5t41 14.5h1198q22 0 22 -20q0 -11 -22 -45l-819 -1180h757q26 0 41 -14.5t15 -40.5v-144q0 -26 -15 -40.5t-41 -14.5h-1228q-27 0 -27 20z" />
<glyph unicode="[" horiz-adv-x="772" d="M168 -268v2054q0 55 55 55h445q55 0 55 -55v-146q0 -55 -55 -55h-213v-1653h213q55 0 55 -55v-145q0 -26 -14.5 -41t-40.5 -15h-445q-26 0 -40.5 15t-14.5 41z" />
<glyph unicode="\" horiz-adv-x="1009" d="M27 1645q-11 28 1 45.5t42 17.5h157q49 0 64 -45l696 -1882q11 -28 -1 -46t-42 -18h-158q-48 0 -63 45z" />
<glyph unicode="]" horiz-adv-x="688" d="M23 -123q0 55 55 55h213v1653h-213q-55 0 -55 55v146q0 55 55 55h444q26 0 41 -14.5t15 -40.5v-2054q0 -26 -15 -41t-41 -15h-444q-26 0 -40.5 15t-14.5 41v145z" />
<glyph unicode="^" horiz-adv-x="1239" d="M122.5 782.5q-11.5 18.5 2.5 46.5l315 641q21 41 66 41h209q44 0 65 -41l316 -641q14 -28 2.5 -46.5t-43.5 -18.5h-172q-47 0 -64 41l-209 446l-209 -446q-17 -41 -63 -41h-172q-32 0 -43.5 18.5z" />
<glyph unicode="_" horiz-adv-x="1368" d="M109 -55q0 55 55 55h1024q55 0 55 -55v-142q0 -55 -55 -55h-1024q-55 0 -55 55v142z" />
<glyph unicode="`" horiz-adv-x="581" d="M84.5 1802.5q1.5 21.5 32.5 34.5l121 51q45 20 75 -18l162 -209q18 -23 9 -42.5t-35 -19.5h-89q-40 0 -69 23l-182 139q-26 20 -24.5 41.5z" />
<glyph unicode="a" d="M42.5 19q-11.5 19 2.5 47l709 1402q16 33 39 33q22 0 38 -33l709 -1402q14 -28 2.5 -47t-43.5 -19h-192q-45 0 -66 41l-96 195h-707l-94 -195q-18 -41 -65 -41h-193q-32 0 -43.5 19zM578 485h428l-213 469z" />
<glyph unicode="b" horiz-adv-x="1423" d="M164 55v1389q0 55 55 55h582q461 0 461 -409q0 -122 -68.5 -212t-175.5 -94v-2q120 -7 212.5 -102.5t92.5 -251.5q0 -96 -27.5 -171t-73.5 -122.5t-111.5 -78.5t-136 -43.5t-151.5 -12.5h-604q-55 0 -55 55zM451 254h352q110 0 171.5 46.5t61.5 143.5t-62.5 144 t-176.5 47h-346v-381zM451 891h321q107 0 155 47.5t48 138.5q0 84 -53 126t-148 42h-323v-354z" />
<glyph unicode="c" horiz-adv-x="1593" d="M82 748q0 160 61.5 304.5t165.5 247.5t247.5 163.5t301.5 60.5q218 0 385.5 -94t255.5 -238q19 -36 9 -59t-38 -33l-145 -60q-23 -10 -47 -3t-37 28q-64 88 -162.5 140t-220.5 52q-133 0 -245.5 -68.5t-178 -186t-65.5 -254.5q0 -139 65.5 -256.5t178 -185.5t245.5 -68 q125 0 219.5 50t149.5 126q31 44 70 44q15 0 32 -7l141 -58q30 -11 39.5 -36t-8.5 -56q-96 -148 -263 -239t-380 -91q-158 0 -301.5 60t-247.5 163t-165.5 247.5t-61.5 306.5z" />
<glyph unicode="d" horiz-adv-x="1609" d="M164 55v1389q0 55 55 55h537q357 0 554 -200.5t197 -548.5q0 -349 -195 -549.5t-556 -200.5h-537q-55 0 -55 55zM451 258h305q463 0 463 490q0 493 -463 493h-305v-983z" />
<glyph unicode="e" horiz-adv-x="1398" d="M164 55v1389q0 55 55 55h991q26 0 41 -14.5t15 -40.5v-144q0 -26 -15 -40.5t-41 -14.5h-761v-375h669q26 0 41 -14.5t15 -40.5v-143q0 -26 -15 -41t-41 -15h-669v-362h761q26 0 41 -14.5t15 -40.5v-144q0 -26 -15 -40.5t-41 -14.5h-991q-55 0 -55 55z" />
<glyph unicode="f" horiz-adv-x="1335" d="M164 55v1389q0 55 55 55h991q26 0 41 -14.5t15 -40.5v-144q0 -26 -15 -40.5t-41 -14.5h-759v-401h667q26 0 41 -15t15 -41v-143q0 -26 -15 -40.5t-41 -14.5h-667v-535q0 -26 -15 -40.5t-41 -14.5h-176q-55 0 -55 55z" />
<glyph unicode="g" horiz-adv-x="1695" d="M82 748q0 158 61.5 302t165.5 248t247.5 166t301.5 62q183 0 343 -80t269 -219q14 -19 14 -36q0 -24 -30 -42l-147 -92q-17 -11 -33 -11q-24 0 -45 25q-71 83 -168.5 134.5t-202.5 51.5q-204 0 -347.5 -146.5t-143.5 -362.5q0 -218 148 -364t370 -146q170 0 286.5 92.5 t135.5 230.5h-498q-55 0 -55 55v148q0 55 55 55h750q52 0 55 -53q1 -28 1 -55q0 -44 -3 -84q-12 -143 -70 -264t-152.5 -207.5t-226.5 -135.5t-286 -49q-219 0 -402 104.5t-288 283t-105 389.5z" />
<glyph unicode="h" horiz-adv-x="1638" d="M164 55v1389q0 55 55 55h174q26 0 41 -14.5t15 -40.5v-592h741v592q0 55 55 55h174q26 0 41 -14.5t15 -40.5v-1389q0 -26 -15 -40.5t-41 -14.5h-174q-55 0 -55 55v543h-741v-543q0 -26 -15 -40.5t-41 -14.5h-174q-55 0 -55 55z" />
<glyph unicode="i" horiz-adv-x="655" d="M184 55v1389q0 26 15 40.5t41 14.5h176q55 0 55 -55v-1389q0 -55 -55 -55h-176q-26 0 -41 14.5t-15 40.5z" />
<glyph unicode="j" horiz-adv-x="1247" d="M63.5 271.5q7.5 22.5 32.5 33.5q89 41 148 68q16 7 30 7q32 0 54 -34q75 -115 207 -115q67 0 117 21t78 52t45.5 74t22.5 79t5 75v912q0 55 55 55h176q26 0 41 -14.5t15 -40.5v-912q0 -260 -151.5 -410.5t-403.5 -150.5q-155 0 -273 66.5t-190 183.5q-16 28 -8.5 50.5z " />
<glyph unicode="k" horiz-adv-x="1478" d="M164 55v1389q0 55 55 55h176q26 0 41 -14.5t15 -40.5v-707l569 729q24 33 67 33h226q35 0 45 -19.5t-12 -47.5l-564 -709l613 -655q25 -26 15.5 -47t-44.5 -21h-246q-39 0 -67 31l-602 651v-627q0 -26 -15 -40.5t-41 -14.5h-176q-55 0 -55 55z" />
<glyph unicode="l" horiz-adv-x="1259" d="M164 55v1389q0 55 55 55h176q26 0 41 -14.5t15 -40.5v-1190h737q55 0 55 -55v-144q0 -55 -55 -55h-969q-55 0 -55 55z" />
<glyph unicode="m" horiz-adv-x="1839" d="M164 55v1422q0 24 22 24q10 0 16.5 -5.5t24.5 -27.5l691 -835l692 835q18 22 24.5 27.5t16.5 5.5q22 0 22 -24v-1422q0 -55 -55 -55h-176q-26 0 -41 14.5t-15 40.5v736l-430 -549q-20 -23 -38 -23q-19 0 -39 23l-428 549v-736q0 -26 -15 -40.5t-41 -14.5h-176 q-55 0 -55 55z" />
<glyph unicode="n" horiz-adv-x="1630" d="M164 55v1424q0 22 18 22q15 0 43 -28l955 -889v860q0 55 55 55h176q55 0 55 -55v-1424q0 -22 -18 -22q-11 0 -41 27l-958 874v-844q0 -26 -15 -40.5t-41 -14.5h-174q-55 0 -55 55z" />
<glyph unicode="o" horiz-adv-x="1732" d="M88 750q0 214 95 390.5t273.5 282t407.5 105.5q173 0 320 -61.5t246.5 -167t155.5 -247.5t56 -302t-56 -303t-155.5 -248t-246.5 -166.5t-320 -61.5q-172 0 -318.5 61.5t-246 166.5t-155.5 248t-56 303zM373 750q0 -108 39 -203.5t105 -163t156.5 -106.5t190.5 -39 q101 0 191.5 39t156.5 106.5t105 163t39 203.5q0 107 -39 202t-105 162.5t-156.5 106.5t-191.5 39q-204 0 -347.5 -147t-143.5 -363z" />
<glyph unicode="p" horiz-adv-x="1388" d="M164 55v1389q0 55 55 55h567q265 0 421.5 -148.5t156.5 -383.5q0 -239 -149.5 -380t-430.5 -141h-333v-391q0 -26 -15 -40.5t-41 -14.5h-176q-55 0 -55 55zM451 700h352q125 0 199.5 76.5t74.5 190.5q0 118 -77 198t-207 80h-342v-545z" />
<glyph unicode="q" horiz-adv-x="1693" d="M88 762q0 155 60.5 296.5t162.5 244t243 163t296 60.5q158 0 297.5 -52.5t243 -146t163.5 -233.5t60 -306q0 -172 -71.5 -320.5t-192.5 -213.5h239q26 0 41 -14.5t15 -40.5v-146q0 -26 -15 -40.5t-41 -14.5h-690q-203 0 -360.5 60t-254.5 165t-146.5 241.5t-49.5 297.5z M373 762q0 -212 135 -349t342 -137q209 0 343 137t134 349q0 219 -137 352t-340 133q-130 0 -239 -61t-173.5 -173t-64.5 -251z" />
<glyph unicode="r" horiz-adv-x="1474" d="M164 55v1389q0 55 55 55h625q228 0 372 -144t144 -372q0 -171 -86 -306t-225 -173l325 -436q20 -28 9.5 -48t-44.5 -20h-215q-43 0 -67 35l-324 442h-284v-422q0 -26 -15 -40.5t-41 -14.5h-174q-55 0 -55 55zM449 727h327q70 0 123.5 15t86.5 39t53.5 58.5t28 69.5 t7.5 76q0 116 -74 188t-225 72h-327v-518z" />
<glyph unicode="s" horiz-adv-x="1392" d="M119 1075q0 98 35 176.5t91.5 128t132.5 82.5t153 46.5t157 13.5q159 0 279 -39.5t223 -112.5q25 -18 29.5 -47t-11.5 -49l-80 -109q-15 -22 -43.5 -26.5t-54.5 10.5q-182 106 -373 106q-46 0 -87.5 -7.5t-80 -24t-61 -47t-22.5 -72.5q0 -20 4.5 -38t17 -33t23 -27.5 t33 -24t36.5 -19.5t44 -17.5t44.5 -14t49.5 -12.5t47 -10.5t49 -10.5q13 -3 58.5 -11.5t69.5 -13.5t72 -18t76.5 -24.5t71.5 -32.5t69.5 -43.5t57 -56t48 -71.5t29 -88.5t11.5 -107.5q0 -225 -153.5 -342t-415.5 -117q-191 0 -325.5 49.5t-254.5 133.5q-29 20 -32 52.5 t14 55.5l61 92q16 25 42.5 31.5t59.5 -10.5q245 -139 430 -139q150 0 218.5 50.5t68.5 127.5q0 34 -11.5 61.5t-37 48t-52.5 35t-71 27t-78.5 20t-89.5 17.5q-173 32 -254 60q-317 111 -317 392z" />
<glyph unicode="t" horiz-adv-x="1269" d="M61 1300v144q0 26 15 40.5t41 14.5h1034q55 0 55 -55v-144q0 -55 -55 -55h-373v-1190q0 -55 -55 -55h-176q-55 0 -55 55v1190h-375q-26 0 -41 14.5t-15 40.5z" />
<glyph unicode="u" horiz-adv-x="1613" d="M164 604v840q0 55 55 55h176q26 0 41 -14.5t15 -40.5v-840q0 -86 24.5 -154.5t62 -109.5t87 -68t94 -37t88.5 -10t88.5 10t94 37t87 68t62 109.5t24.5 154.5v840q0 26 15 40.5t41 14.5h176q55 0 55 -55v-840q0 -287 -175 -459t-468 -172q-292 0 -467.5 172t-175.5 459z " />
<glyph unicode="v" horiz-adv-x="1476" d="M56.5 1480.5q11.5 18.5 41.5 18.5h199q46 0 63 -41l385 -829l385 829q17 41 64 41h201q31 0 42.5 -18.5t-1.5 -46.5l-654 -1401q-15 -33 -37 -33q-21 0 -36 33l-652 1401q-12 28 -0.5 46.5z" />
<glyph unicode="w" horiz-adv-x="2029" d="M49 1436q-11 28 1.5 45.5t43.5 17.5h191q47 0 63 -45l277 -778l358 794q12 29 33 29q19 0 31 -29l358 -796l283 780q16 45 63 45h191q30 0 42 -17.5t1 -45.5l-519 -1403q-8 -22 -14 -27.5t-16 -5.5t-17.5 6.5t-15.5 26.5l-387 868l-391 -870q-9 -21 -15 -27t-16 -6 t-17 6.5t-14 28.5z" />
<glyph unicode="x" horiz-adv-x="1544" d="M77.5 1479.5q9.5 19.5 43.5 19.5h231q46 0 68 -35l364 -506l365 506q22 35 68 35h229q34 0 43.5 -19.5t-10.5 -47.5l-516 -691l505 -673q20 -28 11 -48t-43 -20h-232q-45 0 -67 35l-353 487l-352 -487q-22 -35 -67 -35h-232q-34 0 -43.5 20t10.5 48l506 673l-518 691 q-20 28 -10.5 47.5z" />
<glyph unicode="y" horiz-adv-x="1452" d="M50.5 1481q10.5 18 43.5 18h213q45 0 66 -37l354 -600l358 600q21 37 66 37h213q33 0 43.5 -18t-6.5 -47l-531 -867v-512q0 -55 -55 -55h-176q-55 0 -55 55v512l-527 867q-17 29 -6.5 47z" />
<glyph unicode="z" horiz-adv-x="1437" d="M43 20q0 5 23 43l821 1182h-725q-26 0 -41 14.5t-15 40.5v144q0 26 15 40.5t41 14.5h1198q22 0 22 -20q0 -11 -22 -45l-819 -1180h757q26 0 41 -14.5t15 -40.5v-144q0 -26 -15 -40.5t-41 -14.5h-1228q-27 0 -27 20z" />
<glyph unicode="{" horiz-adv-x="843" d="M100 666v184q0 23 11 36.5t36 24.5q13 5 23.5 13t18.5 16t14 22t9.5 24t6.5 28.5t4 29.5t1.5 34t0.5 35v38.5v38.5v15q0 51 0.5 82t6.5 90.5t17.5 103t35 95t57.5 91.5q58 69 142 115t145.5 61.5t120.5 20.5q27 3 42 -12t15 -42v-163q0 -49 -53 -58q-141 -24 -203 -98 q-57 -71 -51 -295q1 -46 -2.5 -98t-14 -123t-38.5 -130.5t-70 -86.5q55 -58 83.5 -137.5t33 -128.5t7.5 -152q1 -14 1 -21t0.5 -42t1.5 -53.5t4 -53t8 -57t14.5 -47.5t22.5 -41q37 -46 94 -70.5t109 -30.5q53 -6 53 -57v-156q0 -28 -19 -46t-49 -15q-39 4 -82 14t-100 30.5 t-114 60.5t-101 93q-34 40 -57.5 91.5t-35 95t-17.5 103t-6.5 90t-0.5 82.5v16q0 22 0.5 57.5t0.5 52t-1 42t-4 37.5t-8 29t-14 26t-21.5 18t-30.5 16q-47 18 -47 62z" />
<glyph unicode="|" horiz-adv-x="585" d="M188 -162v1819q0 26 15 40.5t41 14.5h96q55 0 55 -55v-1819q0 -55 -55 -55h-96q-26 0 -41 14.5t-15 40.5z" />
<glyph unicode="}" horiz-adv-x="843" d="M33 -133q0 51 53 57q52 6 109 30.5t94 70.5q13 16 22.5 41t14.5 47.5t8 57t4 53t1.5 53.5t0.5 42q4 159 17 224q26 128 108 215q-42 27 -70 86.5t-38.5 130.5t-14 123t-2.5 98q6 224 -51 295q-62 74 -203 98q-53 9 -53 58v163q0 27 15 42t42 12q265 -28 408 -197 q41 -49 67 -109.5t35.5 -131.5t11.5 -112t2 -106v-18v-38.5v-38.5t0.5 -35t1.5 -34t4 -29.5t6.5 -28.5t9.5 -24t14 -22t18.5 -16t23.5 -13q25 -11 36 -24.5t11 -36.5v-184q0 -44 -47 -62q-20 -8 -34 -17.5t-22.5 -26t-13.5 -28t-7 -40t-2 -44t0.5 -57.5t0.5 -65 q0 -52 -0.5 -68.5t-2.5 -72.5t-9.5 -89t-19.5 -82t-33.5 -90t-50.5 -76q-44 -53 -101 -93t-114 -60.5t-100.5 -30.5t-82.5 -14q-30 -3 -48.5 14.5t-18.5 46.5v156z" />
<glyph unicode="~" horiz-adv-x="1175" d="M111 811q37 72 104 123t162 51q61 0 115.5 -20.5t88 -45t77 -45t83.5 -20.5q89 0 136 72q29 42 73 28l62 -20q56 -19 41 -55q-37 -82 -109.5 -144.5t-169.5 -62.5q-57 0 -113 21t-93.5 45.5t-86 45.5t-92.5 21q-65 0 -104 -57q-31 -42 -72 -29l-68 22q-58 20 -34 70z" />
<glyph unicode="&#xa1;" horiz-adv-x="600" d="M147 57l48 951q3 53 55 53h98q52 0 55 -53l48 -951q1 -26 -14 -41.5t-42 -15.5h-192q-27 0 -42 15.5t-14 41.5zM150 1362q0 63 44 107t107 44q62 0 106 -44t44 -107q0 -62 -44.5 -106t-105.5 -44q-63 0 -107 44t-44 106z" />
<glyph unicode="&#xa2;" horiz-adv-x="1267" d="M78 745q0 212 130.5 377t330.5 217v131q0 26 14.5 41t40.5 15h176q26 0 40.5 -15t14.5 -41v-127q113 -26 208.5 -91.5t160.5 -159.5q17 -23 10.5 -43t-33.5 -31l-157 -64q-45 -18 -74 21q-102 129 -250 129q-143 0 -240.5 -100t-97.5 -259q0 -156 98 -257t240 -101 q86 0 141 30.5t103 88.5q28 38 74 20l155 -63q27 -11 34.5 -30.5t-9.5 -43.5q-137 -189 -363 -242v-116q0 -26 -14.5 -41t-40.5 -15h-176q-26 0 -40.5 15t-14.5 41v121q-200 52 -330.5 217t-130.5 376z" />
<glyph unicode="&#xa3;" horiz-adv-x="1259" d="M106 55v146q0 41 41 65q93 56 125 178q19 76 -8 191h-98q-55 0 -55 55v115q0 55 55 55h67l-18 150q-10 113 24.5 210t103 163t165.5 103.5t211 37.5q82 0 154.5 -22t124 -56t94 -81t69 -91t45.5 -92q22 -54 -35 -70l-159 -51q-49 -15 -70 37q-31 73 -94 122.5t-129 49.5 q-120 0 -176.5 -61t-48.5 -177q10 -119 18 -172h379q55 0 55 -55v-115q0 -55 -55 -55h-346q16 -149 -18 -251.5t-85 -133.5h670q55 0 55 -55v-140q0 -55 -55 -55h-950q-26 0 -41 14.5t-15 40.5z" />
<glyph unicode="&#xa5;" horiz-adv-x="1253" d="M51 1482.5q11 18.5 43 18.5h213q46 0 66 -39l252 -436l252 436q20 39 65 39h213q32 0 43 -18.5t-6 -46.5l-367 -635h228q26 0 40.5 -15t14.5 -41v-73q0 -26 -14.5 -41t-40.5 -15h-285v-176h285q55 0 55 -55v-72q0 -55 -55 -55h-285v-203q0 -55 -55 -55h-176 q-26 0 -41 14.5t-15 40.5v203h-266q-55 0 -55 55v72q0 55 55 55h266v176h-266q-26 0 -40.5 15t-14.5 41v73q0 26 14.5 41t40.5 15h211l-369 635q-17 28 -6 46.5z" />
<glyph unicode="&#xa6;" horiz-adv-x="585" d="M188 -162v682q0 26 15 40.5t41 14.5h96q55 0 55 -55v-682q0 -55 -55 -55h-96q-26 0 -41 14.5t-15 40.5zM188 973v684q0 26 15 40.5t41 14.5h96q55 0 55 -55v-684q0 -55 -55 -55h-96q-26 0 -41 14.5t-15 40.5z" />
<glyph unicode="&#xa7;" horiz-adv-x="1085" d="M94 750q0 51 17.5 93.5t38.5 66.5t52.5 44t45 25.5t31.5 11.5q-83 23 -134 88.5t-51 141.5t29.5 134t71.5 89t100.5 50t105.5 24.5t97 5.5q203 0 381 -113q50 -27 14 -76l-62 -80q-28 -40 -77 -12q-135 80 -275 80q-76 0 -114.5 -27t-38.5 -73q0 -15 5.5 -28.5 t17.5 -24.5t24 -20t31.5 -17t34 -13.5t37.5 -11.5t35.5 -9t34.5 -7.5t29 -6.5q5 -1 17 -4q40 -9 63.5 -15t69 -21t75 -30.5t67 -41.5t59.5 -55t37.5 -71t15.5 -91q0 -82 -41 -141.5t-102 -77.5q63 -18 104 -92.5t41 -147.5q0 -165 -103 -245.5t-278 -80.5q-249 0 -463 138 q-47 27 -14 75l55 76q30 44 76 14q164 -102 324 -102q80 0 127 27.5t47 76.5q0 28 -14 50.5t-33 36.5t-55.5 26.5t-63 18.5t-74.5 16q-139 29 -202 53q-216 85 -216 273zM287 797q-5 -62 44 -106t126 -66t180 -29q55 -3 97 30t46 93q5 71 -76.5 130t-224.5 69 q-27 2 -55.5 -2t-60 -15.5t-52.5 -38.5t-24 -65z" />
<glyph unicode="&#xa8;" horiz-adv-x="847" d="M76 1735q0 60 40.5 99.5t100.5 39.5t98.5 -39.5t38.5 -99.5t-38.5 -99t-98.5 -39t-100.5 39t-40.5 99zM494 1735q0 60 39.5 99.5t99.5 39.5t99.5 -39.5t39.5 -99.5t-39.5 -99t-99.5 -39t-99.5 39t-39.5 99z" />
<glyph unicode="&#xa9;" horiz-adv-x="1691" d="M76 745q0 156 61 299t164 246t245.5 164.5t299.5 61.5q156 0 298.5 -61.5t246 -164.5t164.5 -246t61 -299q0 -209 -103.5 -386t-280.5 -280.5t-386 -103.5t-386.5 103.5t-280.5 280.5t-103 386zM268 745q0 -156 78 -289t211 -210.5t289 -77.5q117 0 223.5 46t183.5 123.5 t122.5 184t45.5 223.5q0 156 -77 288.5t-209.5 210t-288.5 77.5t-289 -77.5t-211 -210t-78 -288.5zM432 745q0 170 122 291t292 121q101 0 189.5 -46.5t144.5 -125.5q17 -24 9.5 -43.5t-34.5 -30.5l-47 -18q-41 -16 -74 20q-77 84 -188 84q-104 0 -179 -74t-75 -178 t74.5 -177.5t179.5 -73.5q108 0 180 75q36 36 76 19l47 -19q27 -11 34.5 -30t-9.5 -43q-59 -75 -145 -119.5t-183 -44.5q-170 0 -292 121.5t-122 291.5z" />
<glyph unicode="&#xaa;" horiz-adv-x="745" d="M88 1081q0 59 39 117q69 98 262 92q53 0 94 -8q-2 58 -23 83t-85 28q-84 5 -162 -33q-37 -18 -57 16l-21 37q-23 39 15 57q105 58 225 58q130 0 196 -78q62 -68 62 -199v-309q0 -43 -43 -43h-62q-43 0 -43 37v16q-59 -67 -184 -67q-18 0 -38 3.5t-50.5 13t-59.5 34.5 t-47 61q-18 41 -18 84zM117 676v53q0 43 43 43h485q43 0 43 -43v-53q0 -43 -43 -43h-485q-43 0 -43 43zM231 1081q8 -67 107 -67q88 0 118 36.5t27 120.5q-46 5 -112 5q-22 0 -42 -3t-45.5 -11.5t-40 -29t-12.5 -51.5z" />
<glyph unicode="&#xab;" horiz-adv-x="1388" d="M135 713q-23 39 0 78l258 403q22 37 66 37h170q34 0 44 -19.5t-9 -48.5l-273 -411l275 -406q19 -28 9 -47.5t-44 -19.5h-174q-45 0 -66 36zM698 713q-23 39 0 78l260 403q22 37 66 37h168q34 0 45 -19.5t-8 -48.5l-273 -411l275 -406q19 -28 9 -47.5t-44 -19.5h-174 q-45 0 -66 36z" />
<glyph unicode="&#xac;" horiz-adv-x="1206" d="M98 834v141q0 26 15 40.5t41 14.5h880q26 0 41 -14.5t15 -40.5v-494q0 -26 -15 -40.5t-41 -14.5h-176q-55 0 -55 55v297h-649q-26 0 -41 15t-15 41z" />
<glyph unicode="&#xad;" horiz-adv-x="1705" />
<glyph unicode="&#xae;" horiz-adv-x="1693" d="M72 748q0 209 103.5 386t280.5 280.5t386 103.5t387 -103.5t281.5 -280.5t103.5 -386q0 -157 -61 -300t-164.5 -246.5t-246.5 -165t-300 -61.5q-156 0 -298.5 61.5t-246 165t-164.5 246.5t-61 300zM264 748q0 -156 78 -289t211 -211t289 -78t289 78t210.5 211t77.5 289 q0 117 -46 223.5t-123.5 184t-184 123.5t-223.5 46q-156 0 -289 -77.5t-211 -210.5t-78 -289zM561 451v598q0 55 55 55h281q114 0 186 -71.5t72 -186.5q0 -77 -36.5 -138t-100.5 -94l112 -151q20 -28 11 -48t-43 -20h-82q-45 0 -68 33l-119 158h-100v-135q0 -26 -14.5 -41 t-40.5 -15h-58q-26 0 -40.5 15t-14.5 41zM729 756h168q11 0 23 2.5t29 10.5t27.5 28t10.5 49q0 90 -90 90h-168v-180z" />
<glyph unicode="&#xaf;" horiz-adv-x="772" d="M66 1698v78q0 55 55 55h520q55 0 55 -55v-78q0 -26 -14.5 -41t-40.5 -15h-520q-26 0 -40.5 15t-14.5 41z" />
<glyph unicode="&#xb0;" horiz-adv-x="688" d="M84 1499q0 107 76.5 183.5t183.5 76.5t182.5 -76.5t75.5 -183.5t-75.5 -183.5t-182.5 -76.5t-183.5 76.5t-76.5 183.5zM244 1499q0 -41 29.5 -69.5t70.5 -28.5q40 0 69 28.5t29 69.5t-29 69.5t-69 28.5q-41 0 -70.5 -28.5t-29.5 -69.5z" />
<glyph unicode="&#xb1;" horiz-adv-x="1124" d="M127 55v142q0 55 55 55h746q55 0 55 -55v-142q0 -55 -55 -55h-746q-55 0 -55 55zM127 774v137q0 26 14.5 41t40.5 15h228v258q0 55 55 55h180q55 0 55 -55v-258h228q26 0 40.5 -15t14.5 -41v-137q0 -55 -55 -55h-228v-256q0 -55 -55 -55h-180q-55 0 -55 55v256h-228 q-55 0 -55 55z" />
<glyph unicode="&#xb2;" horiz-adv-x="815" d="M70 791v90q0 42 32 67q24 20 143.5 121.5t170.5 142.5q83 66 107 111t24 100q0 71 -45.5 104.5t-106.5 33.5q-28 0 -51 -8.5t-40.5 -27.5t-27 -32.5t-24.5 -38.5q-25 -44 -70 -33l-71 19q-27 6 -37.5 24t0.5 43q20 40 46 74.5t65 69.5t93 55t117 20q83 0 149.5 -26.5 t106.5 -70.5t61 -97t21 -109q0 -55 -14 -101.5t-44 -89t-63 -77t-86 -80.5q-9 -8 -213 -176h377q55 0 55 -55v-53q0 -26 -14.5 -41t-40.5 -15h-565q-26 0 -40.5 15t-14.5 41z" />
<glyph unicode="&#xb3;" horiz-adv-x="786" d="M51 924q-21 53 35 69l55 19q44 14 72 -31q64 -107 170 -109q73 1 108 35.5t35 93.5q0 69 -47 103t-141 39q-57 3 -57 57v41q0 54 55 57q96 5 143 35t47 99q0 57 -38 92t-105 35q-124 0 -170 -103q-24 -49 -70 -35l-55 17q-58 17 -37 69q17 40 42 74.5t63.5 68.5t96.5 54 t128 20q87 0 154 -25.5t104 -67.5t55.5 -90t18.5 -99q0 -52 -13.5 -91t-39.5 -64.5t-50 -40t-59 -29.5q162 -48 162 -228q0 -133 -95 -207.5t-235 -74.5q-71 0 -129 20t-97 54t-64 68.5t-42 74.5z" />
<glyph unicode="&#xb4;" horiz-adv-x="602" d="M100 1618.5q-9 19.5 9 42.5l161 209q29 36 76 18l121 -51q31 -13 32.5 -34.5t-24.5 -41.5l-182 -139q-29 -23 -70 -23h-88q-26 0 -35 19.5z" />
<glyph unicode="&#xb6;" horiz-adv-x="1114" d="M51 1055q0 243 128.5 344.5t402.5 101.5h315q55 0 55 -55v-1391q0 -55 -55 -55h-82q-55 0 -55 55v1331h-148v-1331q0 -55 -55 -55h-82q-55 0 -55 55v598q-162 0 -265.5 114t-103.5 288z" />
<glyph unicode="&#xb7;" horiz-adv-x="421" d="M61 856q0 62 44.5 106t105.5 44q63 0 107 -44t44 -106q0 -63 -44 -107t-107 -44q-62 0 -106 44t-44 107z" />
<glyph unicode="&#xb8;" horiz-adv-x="471" d="M61 -287l2 6q10 22 28 26.5t44 -3.5q32 -8 70 -8q65 0 65 51q0 53 -67 53q-24 0 -60 -18q-36 -16 -61 12q-11 17 -10.5 28.5t10.5 35.5l51 120q9 23 20.5 32t32.5 9h50q20 0 28 -10t-2 -33l-33 -65q38 10 82 -6q114 -39 105 -164q-2 -34 -13 -62t-25.5 -45.5t-36 -30 t-39 -18.5t-39.5 -9.5t-32.5 -4t-23.5 -0.5q-67 0 -127 29q-43 22 -19 75z" />
<glyph unicode="&#xb9;" horiz-adv-x="585" d="M31 1346q-39 38 2 79l268 256q30 27 68 27h24q26 0 41 -14.5t15 -40.5v-867q0 -26 -15 -40.5t-41 -14.5h-76q-55 0 -55 55v600l-100 -96q-39 -39 -80 2z" />
<glyph unicode="&#xba;" horiz-adv-x="808" d="M80 1202q0 134 94 228t227 94q134 0 229 -94.5t95 -227.5t-95 -228t-229 -95q-133 0 -227 94.5t-94 228.5zM117 676v53q0 43 43 43h485q43 0 43 -43v-53q0 -43 -43 -43h-485q-43 0 -43 43zM217 1202q0 -89 53 -141.5t131 -52.5q79 0 132 52.5t53 141.5q0 88 -53 141.5 t-132 53.5q-78 0 -131 -53.5t-53 -141.5z" />
<glyph unicode="&#xbb;" horiz-adv-x="1388" d="M146.5 298.5q-9.5 19.5 9.5 47.5l274 406l-272 411q-19 29 -8 48.5t45 19.5h167q44 0 66 -37l260 -403q23 -39 0 -78l-258 -398q-21 -36 -65 -36h-175q-34 0 -43.5 19.5zM712 298.5q-10 19.5 9 47.5l274 406l-272 411q-19 29 -9 48.5t44 19.5h170q43 0 65 -37l258 -403 q23 -39 0 -78l-256 -398q-21 -36 -65 -36h-174q-34 0 -44 19.5z" />
<glyph unicode="&#xbc;" horiz-adv-x="1789" d="M31 1141q-39 39 2 80l268 256q29 26 68 26h24q26 0 41 -14.5t15 -40.5v-866q0 -26 -15 -41t-41 -15h-76q-26 0 -40.5 15t-14.5 41v600l-100 -97q-39 -39 -80 2zM301.5 19q-11.5 19 5.5 47l834 1398q21 37 65 37h68q33 0 44.5 -18.5t-5.5 -46.5l-832 -1399 q-21 -37 -65 -37h-70q-33 0 -44.5 19zM909 272v66q0 36 25 68l461 540q28 31 67 31h45q26 0 41 -14.5t15 -40.5v-541h63q55 0 55 -55v-54q0 -55 -55 -55h-63v-162q0 -26 -15 -40.5t-41 -14.5h-75q-26 0 -41 14.5t-15 40.5v162h-411q-26 0 -41 14.5t-15 40.5zM1147 381h229 v281z" />
<glyph unicode="&#xbd;" horiz-adv-x="1789" d="M31 1141q-39 39 2 80l268 256q29 26 68 26h24q26 0 41 -14.5t15 -40.5v-866q0 -26 -15 -41t-41 -15h-76q-26 0 -40.5 15t-14.5 41v600l-100 -97q-39 -39 -80 2zM301.5 19q-11.5 19 5.5 47l834 1398q21 37 65 37h68q33 0 44.5 -18.5t-5.5 -46.5l-832 -1399 q-21 -37 -65 -37h-70q-33 0 -44.5 19zM1053 55v90q0 43 32 68q47 39 165 138.5t149 125.5q83 66 107 111t24 100q0 71 -45 104t-107 33q-28 0 -51 -8.5t-40.5 -27t-27 -32t-24.5 -38.5q-25 -44 -70 -33l-71 19q-27 8 -37.5 25t0.5 42q19 40 45.5 75.5t65 69.5t93 54 t117.5 20q83 0 149.5 -26.5t106.5 -70.5t61 -97t21 -109q0 -105 -51 -183.5t-156 -164.5q-9 -8 -213 -176h377q26 0 41 -14.5t15 -40.5v-54q0 -26 -15 -40.5t-41 -14.5h-565q-55 0 -55 55z" />
<glyph unicode="&#xbe;" horiz-adv-x="1961" d="M41 709q-21 53 35 69l55 19q44 14 72 -31q64 -107 170 -109q73 1 108 35.5t35 93.5q0 69 -47 103t-141 39q-58 3 -58 57v41q0 54 56 57q96 5 143 35t47 99q0 57 -37.5 91.5t-105.5 34.5q-69 0 -110 -30t-60 -72q-24 -49 -70 -35l-55 17q-58 17 -37 69q17 40 42 74.5 t63.5 68.5t96.5 54t128 20q87 0 154 -25.5t104 -67.5t55 -90t18 -99q0 -52 -13 -91t-39 -64.5t-50 -40.5t-59 -30q161 -47 161 -227q0 -133 -94.5 -207.5t-234.5 -74.5q-71 0 -129 20t-97 54t-64 68.5t-42 74.5zM506.5 19q-11.5 19 5.5 47l834 1398q21 37 65 37h68 q33 0 44.5 -18.5t-5.5 -46.5l-832 -1399q-21 -37 -65 -37h-70q-33 0 -44.5 19zM1114 272v66q0 36 25 68l460 540q28 31 68 31h45q55 0 55 -55v-541h64q55 0 55 -55v-54q0 -55 -55 -55h-64v-162q0 -55 -55 -55h-76q-55 0 -55 55v162h-412q-55 0 -55 55zM1352 381h229v281z " />
<glyph unicode="&#xbf;" horiz-adv-x="1196" d="M86 393q0 213 163 332q38 28 140 82q76 42 109 89t39 116q6 55 55 55h168q26 0 42 -16t15 -45q-8 -145 -102 -275q-30 -43 -78 -78.5t-91.5 -58.5t-84 -48t-64.5 -59t-24 -79q0 -19 3 -36.5t17 -42.5t37 -43t68.5 -31t107.5 -13q190 0 277 174q22 49 69 33l160 -54 q53 -19 35 -69q-19 -45 -43.5 -87.5t-71.5 -94.5t-103 -90.5t-140.5 -64.5t-182.5 -26q-149 0 -267 53t-185.5 151.5t-67.5 225.5zM526 1366q0 63 44.5 107.5t107.5 44.5q62 0 105.5 -44.5t43.5 -107.5q0 -62 -43.5 -105.5t-105.5 -43.5q-63 0 -107.5 43.5t-44.5 105.5z" />
<glyph unicode="&#xc0;" d="M42.5 19q-11.5 19 2.5 47l709 1402q16 33 39 33q22 0 38 -33l709 -1402q14 -28 2.5 -47t-43.5 -19h-192q-45 0 -66 41l-96 195h-707l-94 -195q-18 -41 -65 -41h-193q-32 0 -43.5 19zM448.5 1794.5q1.5 21.5 32.5 34.5l121 51q45 20 76 -18l162 -209q18 -23 8.5 -42.5 t-35.5 -19.5h-88q-41 0 -70 23l-182 139q-26 20 -24.5 41.5zM578 485h428l-213 469z" />
<glyph unicode="&#xc1;" d="M42.5 19q-11.5 19 2.5 47l709 1402q16 33 39 33q22 0 38 -33l709 -1402q14 -28 2.5 -47t-43.5 -19h-192q-45 0 -66 41l-96 195h-707l-94 -195q-18 -41 -65 -41h-193q-32 0 -43.5 19zM578 485h428l-213 469zM728.5 1610.5q-9.5 19.5 8.5 42.5l162 209q29 36 76 18l121 -51 q31 -13 32.5 -34.5t-24.5 -41.5l-182 -139q-29 -23 -70 -23h-88q-26 0 -35.5 19.5z" />
<glyph unicode="&#xc2;" d="M42.5 19q-11.5 19 2.5 47l709 1402q16 33 39 33q22 0 38 -33l709 -1402q14 -28 2.5 -47t-43.5 -19h-192q-45 0 -66 41l-96 195h-707l-94 -195q-18 -41 -65 -41h-193q-32 0 -43.5 19zM463 1592.5q-10 19.5 12 47.5l170 215q24 33 68 33h157q42 0 68 -33l172 -215 q22 -28 12 -47.5t-45 -19.5h-102q-41 0 -70 29l-117 116l-108 -116q-26 -29 -70 -29h-102q-35 0 -45 19.5zM578 485h428l-213 469z" />
<glyph unicode="&#xc3;" d="M42.5 19q-11.5 19 2.5 47l709 1402q16 33 39 33q22 0 38 -33l709 -1402q14 -28 2.5 -47t-43.5 -19h-192q-45 0 -66 41l-96 195h-707l-94 -195q-18 -41 -65 -41h-193q-32 0 -43.5 19zM401 1677q32 78 92 135t146 60q48 1 87 -13t64.5 -34t47.5 -40t46.5 -34t51.5 -14 q45 0 76 49q30 43 73 26l62 -22q57 -20 29 -74q-39 -73 -99.5 -117.5t-132.5 -44.5q-47 0 -85 14t-62.5 34t-46 40t-46.5 34t-53 14q-51 0 -84 -64q-22 -49 -69 -35l-62 17q-56 16 -35 69zM578 485h428l-213 469z" />
<glyph unicode="&#xc4;" d="M42.5 19q-11.5 19 2.5 47l709 1402q16 33 39 33q22 0 38 -33l709 -1402q14 -28 2.5 -47t-43.5 -19h-192q-45 0 -66 41l-96 195h-707l-94 -195q-18 -41 -65 -41h-193q-32 0 -43.5 19zM444 1706q0 60 41 99.5t101 39.5t98.5 -39.5t38.5 -99.5t-38.5 -98.5t-98.5 -38.5 q-61 0 -101.5 38.5t-40.5 98.5zM578 485h428l-213 469zM862 1706q0 60 39.5 99.5t99.5 39.5t100 -39.5t40 -99.5t-40 -98.5t-100 -38.5t-99.5 38.5t-39.5 98.5z" />
<glyph unicode="&#xc5;" d="M12 0l736 1440q-76 15 -125.5 75.5t-49.5 141.5q0 91 65 155t157 64q91 0 155 -64t64 -155q0 -81 -51 -142t-127 -75l737 -1440h-311l-117 236h-707l-114 -236h-312zM578 485h428l-213 453zM711 1657q0 -35 24.5 -59.5t59.5 -24.5q34 0 58 24.5t24 59.5q0 34 -24 58 t-58 24q-35 0 -59.5 -24t-24.5 -58z" />
<glyph unicode="&#xc6;" horiz-adv-x="2174" d="M11 19.5q-10 19.5 9 48.5l920 1396q22 37 68 37h979q55 0 55 -55v-148q0 -55 -55 -55h-762v-371h669q26 0 41 -14.5t15 -40.5v-151q0 -26 -15 -41t-41 -15h-669v-350h762q55 0 55 -55v-150q0 -55 -55 -55h-994q-55 0 -55 55v197h-473l-141 -215q-22 -37 -68 -37h-201 q-34 0 -44 19.5zM631 506h307v485z" />
<glyph unicode="&#xc7;" horiz-adv-x="1593" d="M82 748q0 160 61.5 304.5t165.5 247.5t247.5 163.5t301.5 60.5q218 0 385.5 -94t255.5 -238q19 -36 9 -59t-38 -33l-145 -60q-23 -10 -47 -3t-37 28q-64 88 -162.5 140t-220.5 52q-133 0 -245.5 -68.5t-178 -186t-65.5 -254.5q0 -139 65.5 -256.5t178 -185.5t245.5 -68 q125 0 219.5 50t149.5 126q43 61 102 37l141 -58q30 -11 39.5 -36t-8.5 -56q-91 -139 -244 -228.5t-348 -99.5l-30 -63q38 10 82 -6q113 -39 104 -164q-2 -34 -13 -62t-25.5 -45.5t-36 -30t-39 -18.5t-39.5 -9.5t-32.5 -4t-23.5 -0.5q-67 0 -127 29q-42 22 -18 75l2 7 q10 22 28 26t43 -4q32 -8 70 -8q66 0 66 51q0 53 -68 53q-23 0 -59 -18q-37 -16 -62 12q-11 17 -10.5 28.5t10.5 35.5l49 118q-145 14 -273.5 79t-222 166t-148 238.5t-54.5 289.5z" />
<glyph unicode="&#xc8;" horiz-adv-x="1398" d="M164 55v1389q0 55 55 55h991q26 0 41 -14.5t15 -40.5v-144q0 -26 -15 -40.5t-41 -14.5h-761v-375h669q26 0 41 -14.5t15 -40.5v-143q0 -26 -15 -41t-41 -15h-669v-362h761q26 0 41 -14.5t15 -40.5v-144q0 -26 -15 -40.5t-41 -14.5h-991q-55 0 -55 55zM448.5 1794.5 q1.5 21.5 32.5 34.5l121 51q45 20 76 -18l162 -209q18 -23 8.5 -42.5t-35.5 -19.5h-88q-41 0 -70 23l-182 139q-26 20 -24.5 41.5z" />
<glyph unicode="&#xc9;" horiz-adv-x="1398" d="M164 55v1389q0 55 55 55h991q26 0 41 -14.5t15 -40.5v-144q0 -26 -15 -40.5t-41 -14.5h-761v-375h669q26 0 41 -14.5t15 -40.5v-143q0 -26 -15 -41t-41 -15h-669v-362h761q26 0 41 -14.5t15 -40.5v-144q0 -26 -15 -40.5t-41 -14.5h-991q-55 0 -55 55zM560.5 1610.5 q-9.5 19.5 8.5 42.5l162 209q29 36 76 18l121 -51q31 -13 32.5 -34.5t-24.5 -41.5l-182 -139q-29 -23 -70 -23h-88q-26 0 -35.5 19.5z" />
<glyph unicode="&#xca;" horiz-adv-x="1398" d="M164 55v1389q0 55 55 55h991q26 0 41 -14.5t15 -40.5v-144q0 -26 -15 -40.5t-41 -14.5h-761v-375h669q26 0 41 -14.5t15 -40.5v-143q0 -26 -15 -41t-41 -15h-669v-362h761q26 0 41 -14.5t15 -40.5v-144q0 -26 -15 -40.5t-41 -14.5h-991q-55 0 -55 55zM391 1592.5 q-10 19.5 12 47.5l170 215q24 33 68 33h158q41 0 67 -33l172 -215q22 -28 12.5 -47.5t-44.5 -19.5h-103q-40 0 -69 29l-117 116l-109 -116q-26 -29 -69 -29h-103q-35 0 -45 19.5z" />
<glyph unicode="&#xcb;" horiz-adv-x="1398" d="M164 55v1389q0 55 55 55h991q26 0 41 -14.5t15 -40.5v-144q0 -26 -15 -40.5t-41 -14.5h-761v-375h669q26 0 41 -14.5t15 -40.5v-143q0 -26 -15 -41t-41 -15h-669v-362h761q26 0 41 -14.5t15 -40.5v-144q0 -26 -15 -40.5t-41 -14.5h-991q-55 0 -55 55zM373 1706 q0 60 40.5 99.5t100.5 39.5t98.5 -39.5t38.5 -99.5t-38.5 -98.5t-98.5 -38.5t-100.5 38.5t-40.5 98.5zM791 1706q0 60 39.5 99.5t99.5 39.5t99.5 -39.5t39.5 -99.5t-39.5 -98.5t-99.5 -38.5t-99.5 38.5t-39.5 98.5z" />
<glyph unicode="&#xcc;" horiz-adv-x="655" d="M35 1794.5q2 21.5 33 34.5l120 51q45 20 76 -18l162 -209q18 -23 8.5 -42.5t-35.5 -19.5h-88q-40 0 -69 23l-183 139q-26 20 -24 41.5zM184 55v1389q0 26 15 40.5t41 14.5h176q55 0 55 -55v-1389q0 -55 -55 -55h-176q-26 0 -41 14.5t-15 40.5z" />
<glyph unicode="&#xcd;" horiz-adv-x="655" d="M184 55v1389q0 26 15 40.5t41 14.5h176q55 0 55 -55v-1389q0 -55 -55 -55h-176q-26 0 -41 14.5t-15 40.5zM220.5 1610.5q-9.5 19.5 8.5 42.5l162 209q29 36 76 18l121 -51q31 -13 32.5 -34.5t-24.5 -41.5l-182 -139q-29 -23 -70 -23h-88q-26 0 -35.5 19.5z" />
<glyph unicode="&#xce;" horiz-adv-x="655" d="M-4 1592.5q-10 19.5 12 47.5l170 215q24 33 68 33h157q42 0 68 -33l172 -215q22 -28 12 -47.5t-45 -19.5h-102q-41 0 -70 29l-116 116l-109 -116q-26 -29 -70 -29h-102q-35 0 -45 19.5zM184 55v1389q0 26 15 40.5t41 14.5h176q55 0 55 -55v-1389q0 -55 -55 -55h-176 q-26 0 -41 14.5t-15 40.5z" />
<glyph unicode="&#xcf;" horiz-adv-x="655" d="M-18 1706q0 60 40.5 99.5t100.5 39.5t98.5 -39.5t38.5 -99.5t-38.5 -98.5t-98.5 -38.5t-100.5 38.5t-40.5 98.5zM184 55v1389q0 26 15 40.5t41 14.5h176q55 0 55 -55v-1389q0 -55 -55 -55h-176q-26 0 -41 14.5t-15 40.5zM399 1706q0 60 40 99.5t100 39.5t99.5 -39.5 t39.5 -99.5t-39.5 -98.5t-99.5 -38.5t-100 38.5t-40 98.5z" />
<glyph unicode="&#xd0;" horiz-adv-x="1609" d="M59 672v141q0 26 14.5 40.5t39.5 14.5h51v576q0 55 55 55h537q357 0 554 -200.5t197 -548.5q0 -349 -195 -549.5t-556 -200.5h-537q-55 0 -55 55v561h-49q-26 0 -41 15t-15 41zM451 258h305q463 0 463 490q0 493 -463 493h-305v-373h264q55 0 55 -55v-141 q0 -26 -14.5 -41t-40.5 -15h-264v-358z" />
<glyph unicode="&#xd1;" horiz-adv-x="1630" d="M164 55v1424q0 22 18 22q15 0 43 -28l955 -889v860q0 55 55 55h176q55 0 55 -55v-1424q0 -22 -18 -22q-11 0 -41 27l-958 874v-844q0 -26 -15 -40.5t-41 -14.5h-174q-55 0 -55 55zM422 1677q32 78 91.5 135t145.5 60q48 1 87 -13t64.5 -34t47.5 -40t46.5 -34t51.5 -14 q45 0 76 49q30 43 74 26l61 -22q57 -20 29 -74q-39 -73 -99 -117.5t-132 -44.5q-47 0 -85 14t-62.5 34t-46 40t-46.5 34t-53 14q-51 0 -84 -64q-22 -49 -70 -35l-61 17q-56 16 -35 69z" />
<glyph unicode="&#xd2;" horiz-adv-x="1732" d="M88 750q0 214 95 390.5t273.5 282t407.5 105.5q173 0 320 -61.5t246.5 -167t155.5 -247.5t56 -302t-56 -303t-155.5 -248t-246.5 -166.5t-320 -61.5q-172 0 -318.5 61.5t-246 166.5t-155.5 248t-56 303zM373 750q0 -108 39 -203.5t105 -163t156.5 -106.5t190.5 -39 q101 0 191.5 39t156.5 106.5t105 163t39 203.5q0 107 -39 202t-105 162.5t-156.5 106.5t-191.5 39q-204 0 -347.5 -147t-143.5 -363zM590 1794.5q2 21.5 33 34.5l120 51q45 20 76 -18l162 -209q18 -23 8.5 -42.5t-35.5 -19.5h-88q-40 0 -69 23l-183 139q-26 20 -24 41.5z " />
<glyph unicode="&#xd3;" horiz-adv-x="1732" d="M88 750q0 214 95 390.5t273.5 282t407.5 105.5q173 0 320 -61.5t246.5 -167t155.5 -247.5t56 -302t-56 -303t-155.5 -248t-246.5 -166.5t-320 -61.5q-172 0 -318.5 61.5t-246 166.5t-155.5 248t-56 303zM373 750q0 -108 39 -203.5t105 -163t156.5 -106.5t190.5 -39 q101 0 191.5 39t156.5 106.5t105 163t39 203.5q0 107 -39 202t-105 162.5t-156.5 106.5t-191.5 39q-204 0 -347.5 -147t-143.5 -363zM720.5 1610.5q-9.5 19.5 8.5 42.5l162 209q29 36 76 18l120 -51q31 -13 33 -34.5t-24 -41.5l-183 -139q-29 -23 -69 -23h-88 q-26 0 -35.5 19.5z" />
<glyph unicode="&#xd4;" horiz-adv-x="1732" d="M88 750q0 214 95 390.5t273.5 282t407.5 105.5q173 0 320 -61.5t246.5 -167t155.5 -247.5t56 -302t-56 -303t-155.5 -248t-246.5 -166.5t-320 -61.5q-172 0 -318.5 61.5t-246 166.5t-155.5 248t-56 303zM373 750q0 -108 39 -203.5t105 -163t156.5 -106.5t190.5 -39 q101 0 191.5 39t156.5 106.5t105 163t39 203.5q0 107 -39 202t-105 162.5t-156.5 106.5t-191.5 39q-204 0 -347.5 -147t-143.5 -363zM537 1592.5q-10 19.5 12 47.5l170 215q24 33 67 33h158q42 0 68 -33l172 -215q22 -28 12 -47.5t-45 -19.5h-102q-41 0 -70 29l-117 116 l-108 -116q-26 -29 -70 -29h-102q-35 0 -45 19.5z" />
<glyph unicode="&#xd5;" horiz-adv-x="1732" d="M88 750q0 214 95 390.5t273.5 282t407.5 105.5q173 0 320 -61.5t246.5 -167t155.5 -247.5t56 -302t-56 -303t-155.5 -248t-246.5 -166.5t-320 -61.5q-172 0 -318.5 61.5t-246 166.5t-155.5 248t-56 303zM373 750q0 -108 39 -203.5t105 -163t156.5 -106.5t190.5 -39 q101 0 191.5 39t156.5 106.5t105 163t39 203.5q0 107 -39 202t-105 162.5t-156.5 106.5t-191.5 39q-204 0 -347.5 -147t-143.5 -363zM475 1677q32 78 92 135t146 60q48 1 87 -13t64.5 -34t47.5 -40t46.5 -34t51.5 -14q44 0 75 49q30 43 74 26l62 -22q56 -19 28 -74 q-39 -73 -99 -117.5t-132 -44.5q-47 0 -85 14t-62.5 34t-46 40t-46.5 34t-53 14q-51 0 -84 -64q-22 -49 -70 -35l-61 17q-56 16 -35 69z" />
<glyph unicode="&#xd6;" horiz-adv-x="1732" d="M88 750q0 214 95 390.5t273.5 282t407.5 105.5q173 0 320 -61.5t246.5 -167t155.5 -247.5t56 -302t-56 -303t-155.5 -248t-246.5 -166.5t-320 -61.5q-172 0 -318.5 61.5t-246 166.5t-155.5 248t-56 303zM373 750q0 -108 39 -203.5t105 -163t156.5 -106.5t190.5 -39 q101 0 191.5 39t156.5 106.5t105 163t39 203.5q0 107 -39 202t-105 162.5t-156.5 106.5t-191.5 39q-204 0 -347.5 -147t-143.5 -363zM514 1706q0 60 40.5 99.5t100.5 39.5t99 -39.5t39 -99.5t-39 -98.5t-99 -38.5t-100.5 38.5t-40.5 98.5zM932 1706q0 60 39.5 99.5 t99.5 39.5t99.5 -39.5t39.5 -99.5t-39.5 -98.5t-99.5 -38.5t-99.5 38.5t-39.5 98.5z" />
<glyph unicode="&#xd7;" horiz-adv-x="1032" d="M98 471q-39 39 0 78l230 229l-230 232q-38 38 0 77l105 107q39 42 78 0l229 -231l231 231q39 39 78 0l107 -107q38 -39 0 -77l-232 -232l232 -229q39 -39 0 -78l-107 -106q-39 -39 -78 0l-231 229l-229 -229q-41 -41 -78 0z" />
<glyph unicode="&#xd8;" horiz-adv-x="1732" d="M88 750q0 214 95 390.5t273.5 282t407.5 105.5q131 0 234 -33t202 -100l130 145l159 -141l-131 -148q184 -219 184 -501q0 -160 -56 -303t-155.5 -248t-246.5 -166.5t-320 -61.5q-128 0 -229 32t-197 95l-131 -147l-160 141l132 148q-91 103 -141 234t-50 276zM373 750 q0 -163 94 -297l647 733q-122 74 -250 74q-132 0 -246 -71t-179.5 -188.5t-65.5 -250.5zM621 305q112 -67 243 -67q133 0 247 71t179.5 189t65.5 252q0 152 -88 286z" />
<glyph unicode="&#xd9;" horiz-adv-x="1613" d="M164 604v840q0 55 55 55h176q26 0 41 -14.5t15 -40.5v-840q0 -86 24.5 -154.5t62 -109.5t87 -68t94 -37t88.5 -10t88.5 10t94 37t87 68t62 109.5t24.5 154.5v840q0 26 15 40.5t41 14.5h176q55 0 55 -55v-840q0 -287 -175 -459t-468 -172q-292 0 -467.5 172t-175.5 459z M524.5 1794.5q1.5 21.5 32.5 34.5l121 51q45 20 76 -18l161 -209q18 -23 9 -42.5t-35 -19.5h-88q-41 0 -70 23l-182 139q-26 20 -24.5 41.5z" />
<glyph unicode="&#xda;" horiz-adv-x="1613" d="M164 604v840q0 55 55 55h176q26 0 41 -14.5t15 -40.5v-840q0 -86 24.5 -154.5t62 -109.5t87 -68t94 -37t88.5 -10t88.5 10t94 37t87 68t62 109.5t24.5 154.5v840q0 26 15 40.5t41 14.5h176q55 0 55 -55v-840q0 -287 -175 -459t-468 -172q-292 0 -467.5 172t-175.5 459z M685.5 1610.5q-9.5 19.5 8.5 42.5l162 209q29 36 76 18l121 -51q31 -13 32.5 -34.5t-24.5 -41.5l-182 -139q-29 -23 -70 -23h-88q-26 0 -35.5 19.5z" />
<glyph unicode="&#xdb;" horiz-adv-x="1613" d="M164 604v840q0 55 55 55h176q26 0 41 -14.5t15 -40.5v-840q0 -86 24.5 -154.5t62 -109.5t87 -68t94 -37t88.5 -10t88.5 10t94 37t87 68t62 109.5t24.5 154.5v840q0 26 15 40.5t41 14.5h176q55 0 55 -55v-840q0 -287 -175 -459t-468 -172q-292 0 -467.5 172t-175.5 459z M479.5 1592.5q-9.5 19.5 12.5 47.5l170 215q24 33 67 33h158q41 0 67 -33l172 -215q22 -28 12.5 -47.5t-44.5 -19.5h-103q-40 0 -69 29l-117 116l-109 -116q-26 -29 -69 -29h-103q-35 0 -44.5 19.5z" />
<glyph unicode="&#xdc;" horiz-adv-x="1613" d="M164 604v840q0 55 55 55h176q26 0 41 -14.5t15 -40.5v-840q0 -86 24.5 -154.5t62 -109.5t87 -68t94 -37t88.5 -10t88.5 10t94 37t87 68t62 109.5t24.5 154.5v840q0 26 15 40.5t41 14.5h176q55 0 55 -55v-840q0 -287 -175 -459t-468 -172q-292 0 -467.5 172t-175.5 459z M459 1706q0 60 40.5 99.5t100.5 39.5t98.5 -39.5t38.5 -99.5t-38.5 -98.5t-98.5 -38.5t-100.5 38.5t-40.5 98.5zM877 1706q0 60 39.5 99.5t99.5 39.5t99.5 -39.5t39.5 -99.5t-39.5 -98.5t-99.5 -38.5t-99.5 38.5t-39.5 98.5z" />
<glyph unicode="&#xdd;" horiz-adv-x="1452" d="M50.5 1481q10.5 18 43.5 18h213q45 0 66 -37l354 -600l358 600q21 37 66 37h213q33 0 43.5 -18t-6.5 -47l-531 -867v-512q0 -55 -55 -55h-176q-55 0 -55 55v512l-527 867q-17 29 -6.5 47zM564.5 1610.5q-9.5 19.5 8.5 42.5l162 209q29 36 76 18l121 -51 q31 -13 32.5 -34.5t-24.5 -41.5l-182 -139q-29 -23 -70 -23h-88q-26 0 -35.5 19.5z" />
<glyph unicode="&#xde;" horiz-adv-x="1456" d="M164 55v1389q0 55 55 55h176q26 0 41 -14.5t15 -40.5v-162h380q144 0 267 -71.5t194.5 -194t71.5 -266.5q0 -108 -42.5 -206.5t-114 -170t-170 -114t-206.5 -42.5h-380v-162q0 -26 -15 -40.5t-41 -14.5h-176q-55 0 -55 55zM451 473h333q80 0 139 24t91.5 64.5t47.5 87.5 t15 101t-15 100.5t-47.5 87.5t-91.5 64.5t-139 23.5h-333v-553z" />
<glyph unicode="&#xdf;" horiz-adv-x="2785" d="M119 1075q0 98 35 176.5t91.5 128t132.5 82.5t153 46.5t157 13.5q159 0 279 -39.5t223 -112.5q25 -18 29.5 -47t-11.5 -49l-80 -109q-15 -22 -43.5 -26.5t-54.5 10.5q-182 106 -373 106q-46 0 -87.5 -7.5t-80 -24t-61 -47t-22.5 -72.5q0 -20 4.5 -38t17 -33t23 -27.5 t33 -24t36.5 -19.5t44 -17.5t44.5 -14t49.5 -12.5t47 -10.5t49 -10.5q13 -3 58.5 -11.5t69.5 -13.5t72 -18t76.5 -24.5t71.5 -32.5t69.5 -43.5t57 -56t48 -71.5t29 -88.5t11.5 -107.5q0 -225 -153.5 -342t-415.5 -117q-191 0 -325.5 49.5t-254.5 133.5q-29 20 -32 52.5 t14 55.5l61 92q16 25 42.5 31.5t59.5 -10.5q245 -139 430 -139q150 0 218.5 50.5t68.5 127.5q0 34 -11.5 61.5t-37 48t-52.5 35t-71 27t-78.5 20t-89.5 17.5q-173 32 -254 60q-317 111 -317 392zM1511 1075q0 98 35 176.5t92 128t133 82.5t153 46.5t157 13.5 q159 0 279 -39.5t223 -112.5q25 -18 29.5 -47t-11.5 -49l-80 -109q-15 -22 -43.5 -26.5t-54.5 10.5q-182 106 -373 106q-46 0 -87.5 -7.5t-80 -24t-61.5 -47t-23 -72.5q0 -20 4.5 -38t17 -33t23 -27.5t33 -24t36.5 -19.5t44 -17.5t44.5 -14t49.5 -12.5t47 -10.5t49 -10.5 q13 -3 58.5 -11.5t70 -13.5t72 -17.5t76.5 -24.5t72 -33t69.5 -43.5t57 -56t48 -71.5t29 -88.5t11.5 -107.5q0 -225 -154 -342t-416 -117q-133 0 -248.5 29t-184.5 64.5t-146 89.5q-29 20 -32.5 52.5t13.5 55.5l62 92q16 25 42.5 31.5t59.5 -10.5q245 -139 430 -139 q150 0 218.5 50.5t68.5 127.5q0 34 -11.5 61.5t-37 48t-52.5 35t-71 27t-78.5 20t-89.5 17.5q-173 32 -254 60q-317 112 -318 392z" />
<glyph unicode="&#xe0;" d="M42.5 19q-11.5 19 2.5 47l709 1402q16 33 39 33q22 0 38 -33l709 -1402q14 -28 2.5 -47t-43.5 -19h-192q-45 0 -66 41l-96 195h-707l-94 -195q-18 -41 -65 -41h-193q-32 0 -43.5 19zM448.5 1794.5q1.5 21.5 32.5 34.5l121 51q45 20 76 -18l162 -209q18 -23 8.5 -42.5 t-35.5 -19.5h-88q-41 0 -70 23l-182 139q-26 20 -24.5 41.5zM578 485h428l-213 469z" />
<glyph unicode="&#xe1;" d="M42.5 19q-11.5 19 2.5 47l709 1402q16 33 39 33q22 0 38 -33l709 -1402q14 -28 2.5 -47t-43.5 -19h-192q-45 0 -66 41l-96 195h-707l-94 -195q-18 -41 -65 -41h-193q-32 0 -43.5 19zM578 485h428l-213 469zM728.5 1610.5q-9.5 19.5 8.5 42.5l162 209q29 36 76 18l121 -51 q31 -13 32.5 -34.5t-24.5 -41.5l-182 -139q-29 -23 -70 -23h-88q-26 0 -35.5 19.5z" />
<glyph unicode="&#xe2;" d="M42.5 19q-11.5 19 2.5 47l709 1402q16 33 39 33q22 0 38 -33l709 -1402q14 -28 2.5 -47t-43.5 -19h-192q-45 0 -66 41l-96 195h-707l-94 -195q-18 -41 -65 -41h-193q-32 0 -43.5 19zM463 1592.5q-10 19.5 12 47.5l170 215q24 33 68 33h157q42 0 68 -33l172 -215 q22 -28 12 -47.5t-45 -19.5h-102q-41 0 -70 29l-117 116l-108 -116q-26 -29 -70 -29h-102q-35 0 -45 19.5zM578 485h428l-213 469z" />
<glyph unicode="&#xe3;" d="M42.5 19q-11.5 19 2.5 47l709 1402q16 33 39 33q22 0 38 -33l709 -1402q14 -28 2.5 -47t-43.5 -19h-192q-45 0 -66 41l-96 195h-707l-94 -195q-18 -41 -65 -41h-193q-32 0 -43.5 19zM401 1677q32 78 92 135t146 60q48 1 87 -13t64.5 -34t47.5 -40t46.5 -34t51.5 -14 q45 0 76 49q30 43 73 26l62 -22q57 -20 29 -74q-39 -73 -99.5 -117.5t-132.5 -44.5q-47 0 -85 14t-62.5 34t-46 40t-46.5 34t-53 14q-51 0 -84 -64q-22 -49 -69 -35l-62 17q-56 16 -35 69zM578 485h428l-213 469z" />
<glyph unicode="&#xe4;" d="M42.5 19q-11.5 19 2.5 47l709 1402q16 33 39 33q22 0 38 -33l709 -1402q14 -28 2.5 -47t-43.5 -19h-192q-45 0 -66 41l-96 195h-707l-94 -195q-18 -41 -65 -41h-193q-32 0 -43.5 19zM444 1706q0 60 41 99.5t101 39.5t98.5 -39.5t38.5 -99.5t-38.5 -98.5t-98.5 -38.5 q-61 0 -101.5 38.5t-40.5 98.5zM578 485h428l-213 469zM862 1706q0 60 39.5 99.5t99.5 39.5t100 -39.5t40 -99.5t-40 -98.5t-100 -38.5t-99.5 38.5t-39.5 98.5z" />
<glyph unicode="&#xe5;" d="M42.5 19q-11.5 19 2.5 47l703 1374q-76 15 -125.5 75.5t-49.5 141.5q0 91 65 155t157 64q91 0 155 -64t64 -155q0 -81 -51 -142t-127 -75l704 -1374q14 -28 2.5 -47t-43.5 -19h-192q-45 0 -66 41l-96 195h-707l-94 -195q-18 -41 -65 -41h-193q-32 0 -43.5 19zM578 485 h428l-213 453zM711 1657q0 -35 24.5 -59.5t59.5 -24.5q34 0 58 24.5t24 59.5q0 34 -24 58t-58 24q-35 0 -59.5 -24t-24.5 -58z" />
<glyph unicode="&#xe6;" horiz-adv-x="2174" d="M11 19.5q-10 19.5 9 48.5l920 1396q22 37 68 37h979q55 0 55 -55v-148q0 -55 -55 -55h-762v-371h669q26 0 41 -14.5t15 -40.5v-151q0 -26 -15 -41t-41 -15h-669v-350h762q55 0 55 -55v-150q0 -55 -55 -55h-994q-55 0 -55 55v197h-473l-141 -215q-22 -37 -68 -37h-201 q-34 0 -44 19.5zM631 506h307v485z" />
<glyph unicode="&#xe7;" horiz-adv-x="1593" d="M82 748q0 160 61.5 304.5t165.5 247.5t247.5 163.5t301.5 60.5q218 0 385.5 -94t255.5 -238q19 -36 9 -59t-38 -33l-145 -60q-23 -10 -47 -3t-37 28q-64 88 -162.5 140t-220.5 52q-133 0 -245.5 -68.5t-178 -186t-65.5 -254.5q0 -139 65.5 -256.5t178 -185.5t245.5 -68 q125 0 219.5 50t149.5 126q43 61 102 37l141 -58q30 -11 39.5 -36t-8.5 -56q-91 -139 -244 -228.5t-348 -99.5l-30 -63q38 10 82 -6q113 -39 104 -164q-2 -34 -13 -62t-25.5 -45.5t-36 -30t-39 -18.5t-39.5 -9.5t-32.5 -4t-23.5 -0.5q-67 0 -127 29q-42 22 -18 75l2 7 q10 22 28 26t43 -4q32 -8 70 -8q66 0 66 51q0 53 -68 53q-23 0 -59 -18q-37 -16 -62 12q-11 17 -10.5 28.5t10.5 35.5l49 118q-145 14 -273.5 79t-222 166t-148 238.5t-54.5 289.5z" />
<glyph unicode="&#xe8;" horiz-adv-x="1398" d="M164 55v1389q0 55 55 55h991q26 0 41 -14.5t15 -40.5v-144q0 -26 -15 -40.5t-41 -14.5h-761v-375h669q26 0 41 -14.5t15 -40.5v-143q0 -26 -15 -41t-41 -15h-669v-362h761q26 0 41 -14.5t15 -40.5v-144q0 -26 -15 -40.5t-41 -14.5h-991q-55 0 -55 55zM448.5 1794.5 q1.5 21.5 32.5 34.5l121 51q45 20 76 -18l162 -209q18 -23 8.5 -42.5t-35.5 -19.5h-88q-41 0 -70 23l-182 139q-26 20 -24.5 41.5z" />
<glyph unicode="&#xe9;" horiz-adv-x="1398" d="M164 55v1389q0 55 55 55h991q26 0 41 -14.5t15 -40.5v-144q0 -26 -15 -40.5t-41 -14.5h-761v-375h669q26 0 41 -14.5t15 -40.5v-143q0 -26 -15 -41t-41 -15h-669v-362h761q26 0 41 -14.5t15 -40.5v-144q0 -26 -15 -40.5t-41 -14.5h-991q-55 0 -55 55zM560.5 1610.5 q-9.5 19.5 8.5 42.5l162 209q29 36 76 18l121 -51q31 -13 32.5 -34.5t-24.5 -41.5l-182 -139q-29 -23 -70 -23h-88q-26 0 -35.5 19.5z" />
<glyph unicode="&#xea;" horiz-adv-x="1398" d="M164 55v1389q0 55 55 55h991q26 0 41 -14.5t15 -40.5v-144q0 -26 -15 -40.5t-41 -14.5h-761v-375h669q26 0 41 -14.5t15 -40.5v-143q0 -26 -15 -41t-41 -15h-669v-362h761q26 0 41 -14.5t15 -40.5v-144q0 -26 -15 -40.5t-41 -14.5h-991q-55 0 -55 55zM391 1592.5 q-10 19.5 12 47.5l170 215q24 33 68 33h158q41 0 67 -33l172 -215q22 -28 12.5 -47.5t-44.5 -19.5h-103q-40 0 -69 29l-117 116l-109 -116q-26 -29 -69 -29h-103q-35 0 -45 19.5z" />
<glyph unicode="&#xeb;" horiz-adv-x="1398" d="M164 55v1389q0 55 55 55h991q26 0 41 -14.5t15 -40.5v-144q0 -26 -15 -40.5t-41 -14.5h-761v-375h669q26 0 41 -14.5t15 -40.5v-143q0 -26 -15 -41t-41 -15h-669v-362h761q26 0 41 -14.5t15 -40.5v-144q0 -26 -15 -40.5t-41 -14.5h-991q-55 0 -55 55zM373 1706 q0 60 40.5 99.5t100.5 39.5t98.5 -39.5t38.5 -99.5t-38.5 -98.5t-98.5 -38.5t-100.5 38.5t-40.5 98.5zM791 1706q0 60 39.5 99.5t99.5 39.5t99.5 -39.5t39.5 -99.5t-39.5 -98.5t-99.5 -38.5t-99.5 38.5t-39.5 98.5z" />
<glyph unicode="&#xec;" horiz-adv-x="655" d="M35 1794.5q2 21.5 33 34.5l120 51q45 20 76 -18l162 -209q18 -23 8.5 -42.5t-35.5 -19.5h-88q-40 0 -69 23l-183 139q-26 20 -24 41.5zM184 55v1389q0 26 15 40.5t41 14.5h176q55 0 55 -55v-1389q0 -55 -55 -55h-176q-26 0 -41 14.5t-15 40.5z" />
<glyph unicode="&#xed;" horiz-adv-x="655" d="M184 55v1389q0 26 15 40.5t41 14.5h176q55 0 55 -55v-1389q0 -55 -55 -55h-176q-26 0 -41 14.5t-15 40.5zM220.5 1610.5q-9.5 19.5 8.5 42.5l162 209q29 36 76 18l121 -51q31 -13 32.5 -34.5t-24.5 -41.5l-182 -139q-29 -23 -70 -23h-88q-26 0 -35.5 19.5z" />
<glyph unicode="&#xee;" horiz-adv-x="655" d="M-4 1592.5q-10 19.5 12 47.5l170 215q24 33 68 33h157q42 0 68 -33l172 -215q22 -28 12 -47.5t-45 -19.5h-102q-41 0 -70 29l-116 116l-109 -116q-26 -29 -70 -29h-102q-35 0 -45 19.5zM184 55v1389q0 26 15 40.5t41 14.5h176q55 0 55 -55v-1389q0 -55 -55 -55h-176 q-26 0 -41 14.5t-15 40.5z" />
<glyph unicode="&#xef;" horiz-adv-x="655" d="M-18 1706q0 60 40.5 99.5t100.5 39.5t98.5 -39.5t38.5 -99.5t-38.5 -98.5t-98.5 -38.5t-100.5 38.5t-40.5 98.5zM184 55v1389q0 26 15 40.5t41 14.5h176q55 0 55 -55v-1389q0 -55 -55 -55h-176q-26 0 -41 14.5t-15 40.5zM399 1706q0 60 40 99.5t100 39.5t99.5 -39.5 t39.5 -99.5t-39.5 -98.5t-99.5 -38.5t-100 38.5t-40 98.5z" />
<glyph unicode="&#xf0;" horiz-adv-x="1609" d="M59 672v141q0 26 14.5 40.5t39.5 14.5h51v576q0 55 55 55h537q357 0 554 -200.5t197 -548.5q0 -349 -195 -549.5t-556 -200.5h-537q-55 0 -55 55v561h-49q-26 0 -41 15t-15 41zM451 258h305q463 0 463 490q0 493 -463 493h-305v-373h264q55 0 55 -55v-141 q0 -26 -14.5 -41t-40.5 -15h-264v-358z" />
<glyph unicode="&#xf1;" horiz-adv-x="1630" d="M164 55v1424q0 22 18 22q15 0 43 -28l955 -889v860q0 55 55 55h176q55 0 55 -55v-1424q0 -22 -18 -22q-11 0 -41 27l-958 874v-844q0 -26 -15 -40.5t-41 -14.5h-174q-55 0 -55 55zM422 1677q32 78 91.5 135t145.5 60q48 1 87 -13t64.5 -34t47.5 -40t46.5 -34t51.5 -14 q45 0 76 49q30 43 74 26l61 -22q57 -20 29 -74q-39 -73 -99 -117.5t-132 -44.5q-47 0 -85 14t-62.5 34t-46 40t-46.5 34t-53 14q-51 0 -84 -64q-22 -49 -70 -35l-61 17q-56 16 -35 69z" />
<glyph unicode="&#xf2;" horiz-adv-x="1732" d="M88 750q0 214 95 390.5t273.5 282t407.5 105.5q173 0 320 -61.5t246.5 -167t155.5 -247.5t56 -302t-56 -303t-155.5 -248t-246.5 -166.5t-320 -61.5q-172 0 -318.5 61.5t-246 166.5t-155.5 248t-56 303zM373 750q0 -108 39 -203.5t105 -163t156.5 -106.5t190.5 -39 q101 0 191.5 39t156.5 106.5t105 163t39 203.5q0 107 -39 202t-105 162.5t-156.5 106.5t-191.5 39q-204 0 -347.5 -147t-143.5 -363zM590 1794.5q2 21.5 33 34.5l120 51q45 20 76 -18l162 -209q18 -23 8.5 -42.5t-35.5 -19.5h-88q-40 0 -69 23l-183 139q-26 20 -24 41.5z " />
<glyph unicode="&#xf3;" horiz-adv-x="1732" d="M88 750q0 214 95 390.5t273.5 282t407.5 105.5q173 0 320 -61.5t246.5 -167t155.5 -247.5t56 -302t-56 -303t-155.5 -248t-246.5 -166.5t-320 -61.5q-172 0 -318.5 61.5t-246 166.5t-155.5 248t-56 303zM373 750q0 -108 39 -203.5t105 -163t156.5 -106.5t190.5 -39 q101 0 191.5 39t156.5 106.5t105 163t39 203.5q0 107 -39 202t-105 162.5t-156.5 106.5t-191.5 39q-204 0 -347.5 -147t-143.5 -363zM720.5 1610.5q-9.5 19.5 8.5 42.5l162 209q29 36 76 18l120 -51q31 -13 33 -34.5t-24 -41.5l-183 -139q-29 -23 -69 -23h-88 q-26 0 -35.5 19.5z" />
<glyph unicode="&#xf4;" horiz-adv-x="1732" d="M88 750q0 214 95 390.5t273.5 282t407.5 105.5q173 0 320 -61.5t246.5 -167t155.5 -247.5t56 -302t-56 -303t-155.5 -248t-246.5 -166.5t-320 -61.5q-172 0 -318.5 61.5t-246 166.5t-155.5 248t-56 303zM373 750q0 -108 39 -203.5t105 -163t156.5 -106.5t190.5 -39 q101 0 191.5 39t156.5 106.5t105 163t39 203.5q0 107 -39 202t-105 162.5t-156.5 106.5t-191.5 39q-204 0 -347.5 -147t-143.5 -363zM537 1592.5q-10 19.5 12 47.5l170 215q24 33 67 33h158q42 0 68 -33l172 -215q22 -28 12 -47.5t-45 -19.5h-102q-41 0 -70 29l-117 116 l-108 -116q-26 -29 -70 -29h-102q-35 0 -45 19.5z" />
<glyph unicode="&#xf5;" horiz-adv-x="1732" d="M88 750q0 214 95 390.5t273.5 282t407.5 105.5q173 0 320 -61.5t246.5 -167t155.5 -247.5t56 -302t-56 -303t-155.5 -248t-246.5 -166.5t-320 -61.5q-172 0 -318.5 61.5t-246 166.5t-155.5 248t-56 303zM373 750q0 -108 39 -203.5t105 -163t156.5 -106.5t190.5 -39 q101 0 191.5 39t156.5 106.5t105 163t39 203.5q0 107 -39 202t-105 162.5t-156.5 106.5t-191.5 39q-204 0 -347.5 -147t-143.5 -363zM475 1677q32 78 92 135t146 60q48 1 87 -13t64.5 -34t47.5 -40t46.5 -34t51.5 -14q44 0 75 49q30 43 74 26l62 -22q56 -19 28 -74 q-39 -73 -99 -117.5t-132 -44.5q-47 0 -85 14t-62.5 34t-46 40t-46.5 34t-53 14q-51 0 -84 -64q-22 -49 -70 -35l-61 17q-56 16 -35 69z" />
<glyph unicode="&#xf6;" horiz-adv-x="1732" d="M88 750q0 214 95 390.5t273.5 282t407.5 105.5q173 0 320 -61.5t246.5 -167t155.5 -247.5t56 -302t-56 -303t-155.5 -248t-246.5 -166.5t-320 -61.5q-172 0 -318.5 61.5t-246 166.5t-155.5 248t-56 303zM373 750q0 -108 39 -203.5t105 -163t156.5 -106.5t190.5 -39 q101 0 191.5 39t156.5 106.5t105 163t39 203.5q0 107 -39 202t-105 162.5t-156.5 106.5t-191.5 39q-204 0 -347.5 -147t-143.5 -363zM514 1706q0 60 40.5 99.5t100.5 39.5t99 -39.5t39 -99.5t-39 -98.5t-99 -38.5t-100.5 38.5t-40.5 98.5zM932 1706q0 60 39.5 99.5 t99.5 39.5t99.5 -39.5t39.5 -99.5t-39.5 -98.5t-99.5 -38.5t-99.5 38.5t-39.5 98.5z" />
<glyph unicode="&#xf7;" horiz-adv-x="1253" d="M98 690v141q0 26 15 41t41 15h942q26 0 40.5 -15t14.5 -41v-141q0 -55 -55 -55h-942q-26 0 -41 14.5t-15 40.5zM481 289q0 60 42 100.5t102 40.5t101.5 -40.5t41.5 -100.5t-41.5 -102t-101.5 -42t-102 42t-42 102zM481 1237q0 60 42 101.5t102 41.5t101.5 -41.5 t41.5 -101.5t-41.5 -101.5t-101.5 -41.5t-102 41.5t-42 101.5z" />
<glyph unicode="&#xf8;" horiz-adv-x="1732" d="M88 750q0 214 95 390.5t273.5 282t407.5 105.5q131 0 234 -33t202 -100l130 145l159 -141l-131 -148q184 -219 184 -501q0 -160 -56 -303t-155.5 -248t-246.5 -166.5t-320 -61.5q-128 0 -229 32t-197 95l-131 -147l-160 141l132 148q-91 103 -141 234t-50 276zM373 750 q0 -163 94 -297l647 733q-122 74 -250 74q-132 0 -246 -71t-179.5 -188.5t-65.5 -250.5zM621 305q112 -67 243 -67q133 0 247 71t179.5 189t65.5 252q0 152 -88 286z" />
<glyph unicode="&#xf9;" horiz-adv-x="1613" d="M164 604v840q0 55 55 55h176q26 0 41 -14.5t15 -40.5v-840q0 -86 24.5 -154.5t62 -109.5t87 -68t94 -37t88.5 -10t88.5 10t94 37t87 68t62 109.5t24.5 154.5v840q0 26 15 40.5t41 14.5h176q55 0 55 -55v-840q0 -287 -175 -459t-468 -172q-292 0 -467.5 172t-175.5 459z M524.5 1794.5q1.5 21.5 32.5 34.5l121 51q45 20 76 -18l161 -209q18 -23 9 -42.5t-35 -19.5h-88q-41 0 -70 23l-182 139q-26 20 -24.5 41.5z" />
<glyph unicode="&#xfa;" horiz-adv-x="1613" d="M164 604v840q0 55 55 55h176q26 0 41 -14.5t15 -40.5v-840q0 -86 24.5 -154.5t62 -109.5t87 -68t94 -37t88.5 -10t88.5 10t94 37t87 68t62 109.5t24.5 154.5v840q0 26 15 40.5t41 14.5h176q55 0 55 -55v-840q0 -287 -175 -459t-468 -172q-292 0 -467.5 172t-175.5 459z M685.5 1610.5q-9.5 19.5 8.5 42.5l162 209q29 36 76 18l121 -51q31 -13 32.5 -34.5t-24.5 -41.5l-182 -139q-29 -23 -70 -23h-88q-26 0 -35.5 19.5z" />
<glyph unicode="&#xfb;" horiz-adv-x="1613" d="M164 604v840q0 55 55 55h176q26 0 41 -14.5t15 -40.5v-840q0 -86 24.5 -154.5t62 -109.5t87 -68t94 -37t88.5 -10t88.5 10t94 37t87 68t62 109.5t24.5 154.5v840q0 26 15 40.5t41 14.5h176q55 0 55 -55v-840q0 -287 -175 -459t-468 -172q-292 0 -467.5 172t-175.5 459z M479.5 1592.5q-9.5 19.5 12.5 47.5l170 215q24 33 67 33h158q41 0 67 -33l172 -215q22 -28 12.5 -47.5t-44.5 -19.5h-103q-40 0 -69 29l-117 116l-109 -116q-26 -29 -69 -29h-103q-35 0 -44.5 19.5z" />
<glyph unicode="&#xfc;" horiz-adv-x="1613" d="M164 604v840q0 55 55 55h176q26 0 41 -14.5t15 -40.5v-840q0 -86 24.5 -154.5t62 -109.5t87 -68t94 -37t88.5 -10t88.5 10t94 37t87 68t62 109.5t24.5 154.5v840q0 26 15 40.5t41 14.5h176q55 0 55 -55v-840q0 -287 -175 -459t-468 -172q-292 0 -467.5 172t-175.5 459z M459 1706q0 60 40.5 99.5t100.5 39.5t98.5 -39.5t38.5 -99.5t-38.5 -98.5t-98.5 -38.5t-100.5 38.5t-40.5 98.5zM877 1706q0 60 39.5 99.5t99.5 39.5t99.5 -39.5t39.5 -99.5t-39.5 -98.5t-99.5 -38.5t-99.5 38.5t-39.5 98.5z" />
<glyph unicode="&#xfd;" horiz-adv-x="1452" d="M50.5 1481q10.5 18 43.5 18h213q45 0 66 -37l354 -600l358 600q21 37 66 37h213q33 0 43.5 -18t-6.5 -47l-531 -867v-512q0 -55 -55 -55h-176q-55 0 -55 55v512l-527 867q-17 29 -6.5 47zM564.5 1610.5q-9.5 19.5 8.5 42.5l162 209q29 36 76 18l121 -51 q31 -13 32.5 -34.5t-24.5 -41.5l-182 -139q-29 -23 -70 -23h-88q-26 0 -35.5 19.5z" />
<glyph unicode="&#xfe;" horiz-adv-x="1456" d="M164 55v1389q0 55 55 55h176q26 0 41 -14.5t15 -40.5v-162h380q144 0 267 -71.5t194.5 -194t71.5 -266.5q0 -108 -42.5 -206.5t-114 -170t-170 -114t-206.5 -42.5h-380v-162q0 -26 -15 -40.5t-41 -14.5h-176q-55 0 -55 55zM451 473h333q80 0 139 24t91.5 64.5t47.5 87.5 t15 101t-15 100.5t-47.5 87.5t-91.5 64.5t-139 23.5h-333v-553z" />
<glyph unicode="&#xff;" horiz-adv-x="1452" d="M50.5 1481q10.5 18 43.5 18h213q45 0 66 -37l354 -600l358 600q21 37 66 37h213q33 0 43.5 -18t-6.5 -47l-531 -867v-512q0 -55 -55 -55h-176q-55 0 -55 55v512l-527 867q-17 29 -6.5 47zM381 1714q0 60 40.5 99.5t100.5 39.5t98.5 -39.5t38.5 -99.5t-38.5 -98.5 t-98.5 -38.5t-100.5 38.5t-40.5 98.5zM799 1714q0 60 39.5 99.5t99.5 39.5t99.5 -39.5t39.5 -99.5t-39.5 -98.5t-99.5 -38.5t-99.5 38.5t-39.5 98.5z" />
<glyph unicode="&#x152;" horiz-adv-x="2375" d="M88 750q0 158 61.5 302t165.5 248t248.5 166t302.5 62q142 0 275 -51q0 22 55 22h991q26 0 41 -14.5t15 -40.5v-146q0 -26 -15 -40.5t-41 -14.5h-762v-373h670q55 0 55 -55v-149q0 -26 -14.5 -41t-40.5 -15h-670v-352h762q26 0 41 -14.5t15 -40.5v-148q0 -26 -15 -40.5 t-41 -14.5h-991q-55 0 -55 12v11q-136 -52 -275 -52q-158 0 -302.5 62t-248.5 166.5t-165.5 248.5t-61.5 302zM375 750q0 -238 140.5 -380.5t350.5 -142.5q103 0 163 29.5t112 85.5v815q-98 115 -275 115q-138 0 -248 -58.5t-176.5 -178.5t-66.5 -285z" />
<glyph unicode="&#x153;" horiz-adv-x="2375" d="M88 750q0 158 61.5 302t165.5 248t248.5 166t302.5 62q142 0 275 -51q0 22 55 22h991q26 0 41 -14.5t15 -40.5v-146q0 -26 -15 -40.5t-41 -14.5h-762v-373h670q55 0 55 -55v-149q0 -26 -14.5 -41t-40.5 -15h-670v-352h762q26 0 41 -14.5t15 -40.5v-148q0 -26 -15 -40.5 t-41 -14.5h-991q-55 0 -55 12v11q-136 -52 -275 -52q-158 0 -302.5 62t-248.5 166.5t-165.5 248.5t-61.5 302zM375 750q0 -238 140.5 -380.5t350.5 -142.5q103 0 163 29.5t112 85.5v815q-98 115 -275 115q-138 0 -248 -58.5t-176.5 -178.5t-66.5 -285z" />
<glyph unicode="&#x178;" horiz-adv-x="1452" d="M50.5 1481q10.5 18 43.5 18h213q45 0 66 -37l354 -600l358 600q21 37 66 37h213q33 0 43.5 -18t-6.5 -47l-531 -867v-512q0 -55 -55 -55h-176q-55 0 -55 55v512l-527 867q-17 29 -6.5 47zM381 1714q0 60 40.5 99.5t100.5 39.5t98.5 -39.5t38.5 -99.5t-38.5 -98.5 t-98.5 -38.5t-100.5 38.5t-40.5 98.5zM799 1714q0 60 39.5 99.5t99.5 39.5t99.5 -39.5t39.5 -99.5t-39.5 -98.5t-99.5 -38.5t-99.5 38.5t-39.5 98.5z" />
<glyph unicode="&#x2c6;" horiz-adv-x="882" d="M105 1613q-10 20 12 48l170 215q24 33 67 33h158q42 0 68 -33l172 -215q22 -28 12 -48t-45 -20h-103q-40 0 -69 29l-117 117l-108 -117q-26 -29 -70 -29h-102q-35 0 -45 20z" />
<glyph unicode="&#x2dc;" horiz-adv-x="968" d="M90 1696q32 77 91.5 134t146.5 60q48 1 87 -13t64.5 -34t47.5 -40t46.5 -34t51.5 -14q44 0 75 49q30 44 74 27l62 -23q56 -19 28 -73q-39 -73 -99 -117.5t-132 -44.5q-47 0 -85 14t-62.5 33.5t-46 39.5t-46.5 34t-53 14q-51 0 -84 -63q-22 -49 -70 -35l-61 16 q-57 16 -35 70z" />
<glyph unicode="&#x2000;" horiz-adv-x="954" />
<glyph unicode="&#x2001;" horiz-adv-x="1909" />
<glyph unicode="&#x2002;" horiz-adv-x="954" />
<glyph unicode="&#x2003;" horiz-adv-x="1909" />
<glyph unicode="&#x2004;" horiz-adv-x="636" />
<glyph unicode="&#x2005;" horiz-adv-x="477" />
<glyph unicode="&#x2006;" horiz-adv-x="318" />
<glyph unicode="&#x2007;" horiz-adv-x="318" />
<glyph unicode="&#x2008;" horiz-adv-x="238" />
<glyph unicode="&#x2009;" horiz-adv-x="381" />
<glyph unicode="&#x200a;" horiz-adv-x="106" />
<glyph unicode="&#x2010;" horiz-adv-x="837" d="M160 700v142q0 55 55 55h395q26 0 41 -14.5t15 -40.5v-142q0 -26 -15 -40.5t-41 -14.5h-395q-55 0 -55 55z" />
<glyph unicode="&#x2011;" horiz-adv-x="837" d="M160 700v142q0 55 55 55h395q26 0 41 -14.5t15 -40.5v-142q0 -26 -15 -40.5t-41 -14.5h-395q-55 0 -55 55z" />
<glyph unicode="&#x2012;" horiz-adv-x="837" d="M160 700v142q0 55 55 55h395q26 0 41 -14.5t15 -40.5v-142q0 -26 -15 -40.5t-41 -14.5h-395q-55 0 -55 55z" />
<glyph unicode="&#x2013;" horiz-adv-x="1011" d="M78 700v142q0 55 55 55h737q26 0 41 -14.5t15 -40.5v-142q0 -26 -15 -40.5t-41 -14.5h-737q-55 0 -55 55z" />
<glyph unicode="&#x2014;" horiz-adv-x="1507" d="M78 700v142q0 55 55 55h1229q55 0 55 -55v-142q0 -55 -55 -55h-1229q-55 0 -55 55z" />
<glyph unicode="&#x2018;" horiz-adv-x="503" d="M92 1122q-29 110 31 226.5t178 162.5q50 19 66 -22q15 -34 -33 -62q-77 -45 -90 -129q62 2 107 -40t48 -103q3 -63 -39 -109t-104 -49q-58 -2 -104.5 32.5t-59.5 92.5z" />
<glyph unicode="&#x2019;" horiz-adv-x="393" d="M41 1366q-3 63 39 109t104 49q58 2 104.5 -32.5t59.5 -92.5q29 -110 -31 -226.5t-178 -162.5q-49 -19 -65 22q-15 35 32 62q78 46 91 129q-62 -2 -107.5 40t-48.5 103z" />
<glyph unicode="&#x201a;" horiz-adv-x="430" d="M53 127q-3 63 39.5 109t104.5 49q58 2 104 -32.5t59 -92.5q29 -111 -30.5 -227t-177.5 -162q-50 -19 -66 22q-15 34 33 62q77 45 90 129q-62 -2 -107.5 40t-48.5 103z" />
<glyph unicode="&#x201c;" horiz-adv-x="907" d="M92 1122q-29 110 31 226.5t178 162.5q50 19 66 -22q15 -34 -33 -62q-77 -45 -90 -129q62 2 107 -40t48 -103q3 -63 -39 -109t-104 -49q-58 -2 -104.5 32.5t-59.5 92.5zM479 1122q-29 110 31 226.5t178 162.5q50 19 66 -22q15 -34 -33 -62q-77 -45 -90 -129q62 2 107 -40 t48 -103q3 -63 -39 -109t-104 -49q-58 -2 -104.5 32.5t-59.5 92.5z" />
<glyph unicode="&#x201d;" horiz-adv-x="802" d="M53 1366q-3 63 39.5 109t104.5 49q58 2 104 -32.5t59 -92.5q29 -111 -30.5 -227t-177.5 -162q-50 -19 -66 22q-15 34 33 62q77 45 90 129q-62 -2 -107.5 40t-48.5 103zM440 1366q-3 63 39.5 109t104.5 49q58 2 104.5 -32.5t59.5 -92.5q29 -110 -31 -226.5t-178 -162.5 q-50 -19 -66 22q-15 34 33 62q77 45 90 129q-62 -2 -107.5 40t-48.5 103z" />
<glyph unicode="&#x201e;" horiz-adv-x="802" d="M53 127q-3 63 39.5 109t104.5 49q58 2 104 -32.5t59 -92.5q29 -111 -30.5 -227t-177.5 -162q-50 -19 -66 22q-15 34 33 62q77 45 90 129q-62 -2 -107.5 40t-48.5 103zM442 127q-3 63 39.5 109t104.5 49q58 2 104.5 -32.5t59.5 -92.5q29 -110 -31 -226.5t-178 -162.5 q-50 -19 -66 22q-15 34 33 62q77 45 90 129q-62 -2 -107.5 40t-48.5 103z" />
<glyph unicode="&#x2022;" horiz-adv-x="741" d="M139 829q0 95 68.5 163.5t163.5 68.5t163 -68.5t68 -163.5t-68 -163t-163 -68t-163.5 68t-68.5 163z" />
<glyph unicode="&#x2026;" horiz-adv-x="1497" d="M104 135q0 61 44 105.5t106 44.5q63 0 107.5 -44t44.5 -106q0 -63 -44.5 -107t-107.5 -44q-62 0 -106 44t-44 107zM590 135q0 62 44 106t105 44q63 0 107.5 -44t44.5 -106q0 -63 -44.5 -107t-107.5 -44q-62 0 -105.5 44t-43.5 107zM1075 135q0 61 44.5 105.5t105.5 44.5 q63 0 107 -44t44 -106q0 -63 -44 -107t-107 -44q-62 0 -106 44t-44 107z" />
<glyph unicode="&#x202f;" horiz-adv-x="381" />
<glyph unicode="&#x2039;" horiz-adv-x="829" d="M135 713q-23 39 0 78l258 403q22 37 66 37h170q34 0 44 -19.5t-9 -48.5l-273 -411l275 -406q19 -28 9 -47.5t-44 -19.5h-174q-45 0 -66 36z" />
<glyph unicode="&#x203a;" horiz-adv-x="829" d="M146.5 298.5q-9.5 19.5 9.5 47.5l274 406l-272 411q-19 29 -9 48.5t44 19.5h169q44 0 66 -37l258 -403q23 -39 0 -78l-256 -398q-21 -36 -65 -36h-175q-34 0 -43.5 19.5z" />
<glyph unicode="&#x205f;" horiz-adv-x="477" />
<glyph unicode="&#x20ac;" horiz-adv-x="1404" d="M45 553v96q0 26 14.5 41t40.5 15h90v6q0 21 5 98h-95q-55 0 -55 55v97q0 55 55 55h129q46 166 150 289q88 106 207 162.5t254 56.5q74 0 144 -18.5t119 -44.5t94 -62t69 -62t45 -53q21 -26 15 -51.5t-38 -44.5l-123 -68q-37 -20 -59 -13t-49 44q-25 38 -82.5 75.5 t-134.5 37.5q-101 0 -182 -67t-128 -181h359q55 0 55 -55v-97q0 -55 -55 -55h-408q-4 -31 -4 -98v-6h412q26 0 40.5 -15t14.5 -41v-96q0 -55 -55 -55h-385q16 -55 42 -100t65.5 -84t98 -61t130.5 -22q155 0 243 138q28 45 74 24l139 -63q27 -12 35 -39t-10 -55 q-20 -31 -41.5 -59.5t-65.5 -68.5t-93 -68t-123.5 -48.5t-157.5 -20.5q-105 0 -201.5 29.5t-184 89.5t-152.5 165t-93 243h-109q-55 0 -55 55z" />
<glyph unicode="&#x2122;" horiz-adv-x="1738" d="M104 1378v68q0 26 15 40.5t41 14.5h524q55 0 55 -55v-68q0 -55 -55 -55h-170v-522q0 -26 -14.5 -41t-40.5 -15h-74q-26 0 -40.5 15t-14.5 41v522h-170q-26 0 -41 14.5t-15 40.5zM834 801v667q0 33 22 33q23 0 49 -33l305 -372l306 372q26 33 45 33q26 0 26 -33v-667 q0 -26 -14.5 -41t-40.5 -15h-74q-26 0 -40.5 15t-14.5 41v241l-154 -186q-39 -45 -78 0l-153 186v-241q0 -26 -14.5 -41t-40.5 -15h-74q-26 0 -40.5 15t-14.5 41z" />
<glyph unicode="&#x25fc;" horiz-adv-x="1495" d="M0 0v1495h1495v-1495h-1495z" />
</font>
</defs>
</svg>
